<?xml version="1.0" encoding="utf-8"?>
<!-- Generator: Adobe Illustrator 19.0.0, SVG Export Plug-In . SVG Version: 6.00 Build 0)  -->
<svg version="1.1" xmlns="http://www.w3.org/2000/svg" xmlns:xlink="http://www.w3.org/1999/xlink" x="0px" y="0px"
	 viewBox="0 0 1400 980" style="enable-background:new 0 0 1400 980;" xml:space="preserve">
<style type="text/css">
	.st0{fill:#FFFFFF;}
	.st1{fill:#FFD85F;}
	.st2{fill:#FFFFFF;stroke:#FFFFFF;stroke-width:7;stroke-miterlimit:10;}
	.st3{font-family:'NovaMono';}
	.st4{font-size:133.649px;}
	.st5{fill:#6D4019;}
	.st6{fill:#502C15;}
	.st7{fill:#BB792A;}
	.st8{fill:#260E2E;}
	.st9{fill:#87C874;}
	.st10{fill:#7BBC64;}
	.st11{fill:#F4774C;}
	.st12{fill:#EB6126;}
	.st13{opacity:0.3;}
	.st14{fill:#AD6E29;}
	.st15{fill:#C68441;}
	.st16{fill:#DDAE43;}
	.st17{opacity:0.71;fill:#CD8E2A;}
	.st18{fill:#8E572E;}
	.st19{fill:#7A4621;}
	.st20{opacity:0.5;fill:#321D0F;}
	.st21{fill:none;}
	.st22{fill:#8FC969;}
	.st23{fill:none;stroke:#BB792A;stroke-width:2;stroke-miterlimit:10;}
	.st24{clip-path:url(#XMLID_325_);fill:#260E2E;}
	.st25{clip-path:url(#XMLID_325_);fill:#FFFFFF;}
	.st26{clip-path:url(#XMLID_326_);fill:#260E2E;}
	.st27{clip-path:url(#XMLID_326_);fill:#FFFFFF;}
	.st28{clip-path:url(#XMLID_327_);fill:#260E2E;}
	.st29{clip-path:url(#XMLID_327_);fill:#FFFFFF;}
	.st30{clip-path:url(#XMLID_328_);fill:#260E2E;}
	.st31{clip-path:url(#XMLID_328_);fill:#FFFFFF;}
	.st32{fill:#F3F3F3;}
	.st33{fill:#E15226;}
	.st34{fill:#010101;}
	.st35{fill:#B62226;}
	.st36{fill:#FDFEFF;}
	.st37{fill:#17733B;}
	.st38{fill:#FBE6AB;}
	.st39{fill:#F9CB46;}
	.st40{fill:#CE2528;}
	.st41{fill:#F8D838;}
	.st42{fill:#91D7ED;}
	.st43{fill:#BFE6F2;}
	.st44{fill:#DBF1F8;}
</style>
<g id="Layer_2">
	<rect id="XMLID_1_" class="st0" width="1400" height="980"/>
	<circle id="XMLID_12_" class="st1" cx="705.9" cy="490" r="437.9"/>
	<text id="XMLID_46_" transform="matrix(1 0 0 1 493.9128 264.4441)" class="st2 st3 st4">Kerala</text>
</g>
<g id="Layer_1">
	<g id="XMLID_238_">
		<path id="XMLID_294_" class="st5" d="M635.2,592.8c0,0,122.6,50.1,178.1,200l-27.2,9.8c-45-106.1-102.2-164.1-132.5-189.3
			C647.8,606.4,641.7,599.6,635.2,592.8z"/>
		<path id="XMLID_293_" class="st6" d="M653.6,613.4c30.3,25.2,87.6,83.2,132.5,189.3l-37,13.4C749.1,816.1,732,707.3,653.6,613.4z"
			/>
		<path id="XMLID_292_" class="st7" d="M669.7,611.8c0,0-0.6,4.3-4.3,8c0,0,4.5-1.5,7.1-6.1L669.7,611.8z"/>
		<path id="XMLID_291_" class="st7" d="M673.3,639c0.4,0.5,5.1-1.9,9-6.5c0,0-2.1,6.8-7.6,8.6L673.3,639z"/>
		<path id="XMLID_290_" class="st7" d="M706.2,636.8c0,0,0,8.3-6.6,12.8c0,0,7.8-3.8,8.5-10.1L706.2,636.8z"/>
		<path id="XMLID_289_" class="st7" d="M692.4,671.5c0,0,11.8-2.6,17.9-9.2c0,0-4.3,7.5-16.1,11.4L692.4,671.5z"/>
		<path id="XMLID_288_" class="st7" d="M738.2,667.9c0,0-2.8,11.7-12.4,16.9c0,0,9.2-1.6,13.5-13.9L738.2,667.9z"/>
		<path id="XMLID_287_" class="st7" d="M717.2,716.4c0,0,7.1,3.2,21.1-4.6c0,0-8.3,7.9-20.1,7.3L717.2,716.4z"/>
		<path id="XMLID_286_" class="st7" d="M783.7,727.1c0,0-11.7,13.6-30.4,18.4c0,0,14.1-0.4,31.6-15L783.7,727.1z"/>
		<path id="XMLID_285_" class="st7" d="M740.4,784.7c0,0,18.1,1.8,44.3-9c0,0-21,12.2-43.1,12.1L740.4,784.7z"/>
		<path id="XMLID_284_" class="st8" d="M633,594.9l-9.9-10.2l13.2,5.4c1.3,0.5,31.5,13,69,44.2c0.3,0.2,0.6,0.5,0.9,0.7
			c1.8,1.5,1.3,4.3-0.9,5.1l0,0c-1,0.4-2.1,0.2-3-0.5c-0.2-0.2-0.4-0.4-0.6-0.5c-21.5-17.9-40.9-29.7-53.4-36.4
			c42.4,47.9,67.8,100.5,82,137.4c13.4,35,19.4,62.5,21.2,72l57.9-20.9c-16.4-43.2-38.4-77.7-60.6-104.6c-1.3-1.6-0.7-4.1,1.3-4.8h0
			c1.2-0.4,2.6-0.1,3.4,0.9c3.8,4.5,7.4,9.2,10.9,13.9c21.5,28.7,38.9,60.8,51.7,95.3l1.1,2.8l-67,24.2l-3.4,1.2l-0.6-3.6
			c0-0.3-5.1-31.7-21.6-74.5C709.5,702.6,681.3,645.1,633,594.9z"/>
		<path id="XMLID_283_" class="st8" d="M726.9,656.2L726.9,656.2c1.1-0.4,2.3-0.1,3.2,0.7c0.9,0.9,1.8,1.8,2.7,2.7
			c1.5,1.6,0.9,4.2-1.1,5l0,0c-1.1,0.4-2.4,0.1-3.2-0.7c-0.9-0.9-1.7-1.8-2.6-2.6C724.3,659.6,724.8,656.9,726.9,656.2z"/>
		<path id="XMLID_282_" class="st9" d="M640.5,587.9c14.4-21,55.6-29.4,61.8-30.5c0.2,0,0.2,0.2,0.1,0.3l-23,13.2
			c-0.3,0.2-0.1,0.6,0.2,0.4c72-28,87-7.7,87-7.7l-25.6,1c-0.1,0-0.1,0.1,0,0.1c53.4,10.5,63.3,53.4,63.3,53.4l-15.1-7.6
			c13.4,13.1,20,27.3,23.2,38.7c-14.8-26.3-40.1-49.8-65-62.3C719.6,572.7,662.9,583,640.5,587.9z"/>
		<path id="XMLID_281_" class="st10" d="M640.5,587.9c22.4-4.9,79.1-15.2,106.9-1.2c24.9,12.6,50.2,36,65,62.3
			c3.7,13.2,3,22.8,3,22.8c-37-91.7-178.3-77.5-178.3-77.5C637.9,592.1,639.1,589.9,640.5,587.9z"/>
		<path id="XMLID_280_" class="st8" d="M632.6,597.8l1.7-4.5c10-26.8,58-37.1,67.5-38.9c1.5-0.3,3,0.6,3.5,2
			c0.4,1.1,0.2,2.3-0.5,3.1c18.4-5.2,33.7-7.1,45.7-5.6c13.6,1.7,18.1,7.2,18.5,7.8l3.4,4.6l-13.1,0.5c17.8,7,29.1,17.8,35.7,26.6
			c9.4,12.4,12.1,23.4,12.2,23.9l1.4,6.3l-7.3-3.7c18.7,25.6,17,51,16.9,52.2l-1,12.8l-4.8-11.9c-10-24.9-28.6-43.9-55.5-56.8
			c-0.7-0.3-1.2-0.9-1.5-1.7l0,0c-0.9-2.5,1.7-4.8,4.1-3.7c4.9,2.4,9.5,4.9,13.9,7.7c16,10,28.5,22.7,37.4,37.7
			c-2.4-11.8-8.4-28.5-23.9-43.7l-13.8-13.5l25.7,13c-1.7-4-4.5-9.4-8.9-15.1c-11.7-15.2-28.4-25.1-49.7-29.3
			c-1.5-0.3-2.6-1.7-2.5-3.2c0.1-1.5,1.4-2.8,2.9-2.8l14.4-0.5c-10.7-2.8-32.6-3.2-74.6,13.1c-1.6,0.6-3.4-0.1-4.1-1.6
			c-0.7-1.5-0.2-3.4,1.3-4.2l4.5-2.6c-14.6,4.7-32.7,12.8-40.3,25.3c9.1-0.5,29.1-1.1,52.4,1.8c1.1,0.1,2.1,0.9,2.5,2l0,0
			c0.8,2.1-1,4.3-3.2,4c-31.2-3.9-56.1-1.5-56.4-1.4L632.6,597.8z"/>
		<path id="XMLID_279_" class="st8" d="M733.9,602.2L733.9,602.2c0.8,2.3-1.3,4.6-3.6,3.9c-3.8-1.1-7.7-2.1-11.7-3
			c-1-0.2-1.8-0.9-2.2-1.9l0,0c-0.8-2.2,1.2-4.5,3.5-3.9c4.1,0.9,8.1,2,12,3.1C732.9,600.6,733.6,601.3,733.9,602.2z"/>
		<path id="XMLID_278_" class="st9" d="M628.1,587.4c-13.2-21.7-4.1-62.8-2.6-68.9c0-0.2,0.3-0.1,0.3,0l2.6,26.4
			c0,0.3,0.5,0.3,0.5,0c3.9-77.2,28.5-82.6,28.5-82.6l-9.6,23.8c0,0.1,0.1,0.1,0.1,0c31.4-44.5,74.6-36,74.6-36l-13.2,10.7
			c17.4-6.8,33.1-7.1,44.8-5.3c-30.1,2.7-61.8,16.2-83.4,33.8C646.6,509,632.8,564.9,628.1,587.4z"/>
		<path id="XMLID_277_" class="st10" d="M628.1,587.4c4.7-22.5,18.4-78.4,42.6-98.1c21.6-17.6,53.4-31.1,83.4-33.8
			c13.6,2,22,6.6,22,6.6c-98.8-3.8-143.6,131-143.6,131C630.9,591.4,629.4,589.5,628.1,587.4z"/>
		<path id="XMLID_275_" class="st8" d="M650.4,487.9c-0.9,1.3-2.6,1.7-4,0.9c-1.4-0.7-2-2.4-1.4-3.8l5.4-13.4
			c-3.2,3.9-6.9,10.3-10.1,20.3c-0.3,0.9-1,1.6-1.8,1.9l0,0c-2.4,0.9-4.7-1.4-3.9-3.8c2.1-6.5,4.6-12.2,7.5-16.9
			c7.1-11.8,14-13.6,14.7-13.7l5.6-1.2l-4.9,12.2c6.1-5.9,12.3-10.4,18.3-13.7c1.6-0.9,3.6-0.1,4.2,1.6v0c0.5,1.4-0.1,2.9-1.4,3.6
			C667.9,467.7,658.5,476.5,650.4,487.9z"/>
		<path id="XMLID_272_" class="st8" d="M622.6,517.8c0.4-1.5,1.7-2.5,3.3-2.4c1.2,0.1,2.1,0.8,2.6,1.8c0.3-2.3,0.7-4.5,1.1-6.7
			c0.2-1.1,0.9-1.9,1.9-2.3h0c2.2-0.8,4.4,1.1,4,3.4c-1.7,9.2-2.9,20.3-3.6,33.6c-0.1,1.7-1.5,3-3.2,3.1c-1.7,0-3.1-1.2-3.3-2.9
			l-0.5-5.1c-1.6,15.2-1.7,35.1,6.6,47.1c4.1-10.7,15.1-37,33.3-62.7c13.9-19.6,29.2-35.1,45.5-46c15.7-10.5,32.4-16.8,49.7-18.8
			c-11.7-2.7-29.5-4-49.6,4l-18,7.1l22.4-18.2c-4.4-0.1-10.5,0.3-17.4,1.9c-1.5,0.4-3,0.8-4.4,1.2c-1.5,0.5-3.2-0.3-3.7-1.8l0,0
			c-0.6-1.6,0.3-3.4,1.9-3.9c1.8-0.5,3.5-1,5.1-1.4c15.2-3.5,26.3-1.4,26.8-1.3l6.3,1.2l-6.3,5.1c31-6.6,53.5,5.3,54.6,5.9l11.3,6.1
			l-12.8-0.5c-39.9-1.5-75.6,19.6-106.2,62.7c-23.1,32.5-34.3,65.9-34.4,66.2l-1.5,4.6l-3.4-3.4
			C610.1,575.2,620.4,527.2,622.6,517.8z"/>
		<path id="XMLID_271_" class="st9" d="M625.3,597.4c-25.2-3.3-59,21.8-64,25.6c-0.1,0.1,0,0.3,0.1,0.2l25.2-8.3
			c0.3-0.1,0.5,0.3,0.2,0.5c-68.9,34.9-63.9,59.6-63.9,59.6l17.9-18.4c0,0,0.1,0,0.1,0.1c-27.9,46.8-2.6,82.8-2.6,82.8l4.4-16.4
			c0.8,18.7,7,33.1,13.3,43.1c-9.7-28.6-10.3-63.1-3-90C561.2,646.1,606.7,610.8,625.3,597.4z"/>
		<path id="XMLID_269_" class="st10" d="M625.3,597.4c-18.7,13.4-64.2,48.7-72.3,78.8c-7.3,26.9-6.7,61.4,3,90
			c7.3,11.6,14.9,17.5,14.9,17.5c-43.6-88.8,61.4-184.5,61.4-184.5C630.1,598.3,627.8,597.7,625.3,597.4z"/>
		<path id="XMLID_255_" class="st8" d="M579.3,793.8l-10.2-7.8c-1-0.7-21-16.5-27.5-47.5l-2.1,7.8l-3.7-5.2c-0.3-0.4-6.7-9.7-9.7-25
			c-2.1-10.8-2.6-26.4,4.1-44.4l-9.1,9.4l-1.1-5.6c-0.2-0.8-1.3-7.8,6.6-19c7-10,18.6-20.1,34.7-30.3c-1.1,0-2.1-0.7-2.7-1.7
			c-0.7-1.4-0.3-3,0.9-4c7.7-5.9,47.4-34.8,74-24.3l4.5,1.8l-3.6,3.2c-0.3,0.2-26.2,24.1-46.5,58.4c-27,45.5-31.7,86.7-14.2,122.5
			L579.3,793.8z M544.9,703.6l0.9,19.3c1,21.6,9.4,37.3,16.5,47c-5.2-16.6-6.2-34.4-3-53c3.3-19.3,11.3-39.6,23.5-60.3
			c16.1-27.1,35.7-47.9,43.8-56c-14.4-2.7-32.5,5.4-45.8,13.1l4.9-1.6c1.6-0.5,3.4,0.3,4,1.8c0.7,1.6,0,3.4-1.5,4.2
			c-40.2,20.3-54.5,37-59.6,46.7l10-10.4c1.1-1.1,2.8-1.2,4.1-0.3c1.2,0.9,1.6,2.7,0.8,4c-11.1,18.7-15,37.7-11.4,56.6
			c1.3,7,3.5,12.7,5.3,16.7L544.9,703.6z"/>
		<path id="XMLID_254_" class="st9" d="M633.2,587.9c-7.4-24.4-44-45-49.6-48c-0.1-0.1-0.3,0.1-0.2,0.2l17.9,19.6
			c0.2,0.2-0.1,0.5-0.3,0.4c-60-48.7-80.5-33.9-80.5-33.9l24.1,8.8c0.1,0,0,0.1,0,0.1c-54.1-6.3-76.6,31.5-76.6,31.5l16.8-2.7
			c-16.7,8.4-27.3,19.9-33.9,29.8c22.1-20.5,53.4-35.1,80.9-39.5C562.6,549.2,613.4,576.4,633.2,587.9z"/>
		<path id="XMLID_244_" class="st10" d="M633.2,587.9c-19.9-11.5-70.6-38.7-101.5-33.8c-27.5,4.4-58.8,19-80.9,39.5
			c-7.6,11.4-9.8,20.8-9.8,20.8c63.2-76,193.4-19.4,193.4-19.4C634.4,592.6,633.9,590.2,633.2,587.9z"/>
		<path id="XMLID_239_" class="st8" d="M435.2,626.2l3-12.5c0.3-1.2,6.4-25.9,32.1-44.5l-8,1.3l3.3-5.5c0.2-0.4,6.1-10.1,18.9-19
			c9-6.3,23-13.1,42.2-14.4l-12.3-4.5l4.6-3.3c0.6-0.5,6.6-4.4,20.1-1.8c11.9,2.3,25.9,8.7,41.8,19.3c-0.4-1-0.3-2.2,0.4-3.1
			c1-1.2,2.6-1.6,4-0.8c8.5,4.6,51.1,29,52.4,57.6l0.2,4.8l-4.4-1.9c-0.3-0.1-32.7-14.1-72.3-18.6c-52.5-6-92.1,6.5-117.6,37.1
			L435.2,626.2z M503.4,557.8l-17.3,8.7c-19.4,9.7-30.3,23.8-36.1,34.3c13.1-11.6,28.9-19.8,47.2-24.4c19-4.9,40.8-5.9,64.6-3.2
			c31.3,3.6,58.3,13,69,17.1c-3.4-14.2-18.2-27.5-30.7-36.4l3.5,3.8c1.2,1.3,1.1,3.2,0,4.4c-1.2,1.3-3.1,1.4-4.4,0.3
			c-35-28.4-56-34.6-67-35.3l13.6,4.9c1.5,0.5,2.3,2.1,1.9,3.6c-0.4,1.5-1.8,2.5-3.3,2.3c-21.6-2.5-40.5,1.7-56.3,12.7
			c-5.9,4.1-10.2,8.4-13.1,11.7L503.4,557.8z"/>
	</g>
	<g id="XMLID_228_">
		<path id="XMLID_262_" class="st5" d="M880.7,568.5c0,0-110.7,72.6-136.4,230.5l28.5,4.4c23.8-112.8,68.9-180.7,93.8-211.2
			C871,584.2,875.7,576.3,880.7,568.5z"/>
		<path id="XMLID_263_" class="st6" d="M866.6,592.2c-24.9,30.5-70,98.4-93.8,211.2l38.9,6C811.7,809.4,807.7,699.4,866.6,592.2z"/>
		<path id="XMLID_230_" class="st7" d="M850.5,593.7c0,0,1.4,4.1,5.7,7c0,0-4.7-0.7-8.1-4.7L850.5,593.7z"/>
		<path id="XMLID_232_" class="st7" d="M852.2,621.1c-0.3,0.6-5.3-0.9-10.1-4.7c0,0,3.3,6.3,9.1,6.9L852.2,621.1z"/>
		<path id="XMLID_233_" class="st7" d="M819.5,625.2c0,0,1.6,8.2,8.9,11.3c0,0-8.4-2.2-10.2-8.3L819.5,625.2z"/>
		<path id="XMLID_235_" class="st7" d="M839.7,656.6c0,0-12.1-0.3-19.3-5.6c0,0,5.7,6.6,18,8.1L839.7,656.6z"/>
		<path id="XMLID_257_" class="st7" d="M794.1,661.9c0,0,5,10.9,15.4,14.2c0,0-9.4,0.1-15.9-11.1L794.1,661.9z"/>
		<path id="XMLID_258_" class="st7" d="M823.9,705.4c0,0-6.3,4.5-21.6-0.5c0,0,9.7,6.2,21.1,3.3L823.9,705.4z"/>
		<path id="XMLID_259_" class="st7" d="M760.8,728.7c0,0,14.1,11.1,33.4,12.3c0,0-13.9,2.3-33.9-8.7L760.8,728.7z"/>
		<path id="XMLID_260_" class="st7" d="M814.3,777c0,0-17.4,5.2-45.2-0.3c0,0,22.9,7.9,44.7,3.7L814.3,777z"/>
		<path id="XMLID_274_" class="st8" d="M883.3,570.1l7.7-11.9l-11.9,7.8c-1.1,0.8-28.4,18.8-59.3,56.7c-0.2,0.3-0.5,0.6-0.7,0.9
			c-1.5,1.8-0.4,4.5,1.9,4.9h0c1.1,0.2,2.1-0.2,2.8-1.1c0.2-0.2,0.4-0.4,0.5-0.7c17.7-21.7,34.5-37,45.4-46
			c-32.4,55.1-47.3,111.6-54.1,150.6c-6.5,36.9-7,65-7,74.7l-60.9-9.5c7.8-45.5,22.8-83.6,39.4-114.2c1-1.8-0.1-4.1-2.2-4.4l0,0
			c-1.3-0.2-2.5,0.4-3.1,1.5c-2.8,5.2-5.5,10.4-8.1,15.7c-15.6,32.3-26.5,67.1-32.4,103.4l-0.5,3l70.4,10.9l3.6,0.6l-0.1-3.6
			c0-0.3-1-32,6.9-77.2C828.9,690.5,845.5,628.6,883.3,570.1z"/>
		<path id="XMLID_276_" class="st8" d="M802.9,648.2L802.9,648.2c-1.2-0.2-2.3,0.3-3,1.3c-0.7,1.1-1.4,2.1-2.1,3.2
			c-1.2,1.8-0.1,4.3,2.1,4.7l0,0c1.2,0.2,2.3-0.3,3-1.3c0.7-1,1.4-2.1,2.1-3.1C806.1,651.1,805,648.6,802.9,648.2z"/>
		<path id="XMLID_261_" class="st9" d="M874.6,564.7c-18.2-17.8-60.2-18.2-66.6-18.1c-0.2,0-0.2,0.2,0,0.3l25.1,8.5
			c0.3,0.1,0.2,0.5-0.1,0.5c-76-13.7-86.9,9.1-86.9,9.1l25.4-4c0.1,0,0.1,0.1,0,0.1c-50.4,20.6-51.9,64.5-51.9,64.5l13.4-10.4
			c-10.6,15.4-14.4,30.6-15.3,42.5c9.5-28.7,29.8-56.5,51.8-73.6C794.1,564.9,851.6,564.1,874.6,564.7z"/>
		<path id="XMLID_264_" class="st10" d="M874.6,564.7c-23-0.5-80.5,0.2-105.2,19.4c-22,17.1-42.3,45-51.8,73.6
			c-1.1,13.7,1.4,22.9,1.4,22.9c18.7-97.1,160.1-110.3,160.1-110.3C877.9,568.2,876.4,566.4,874.6,564.7z"/>
		<path id="XMLID_267_" class="st8" d="M884.2,572.8l-2.5-4.1c-14.9-24.4-64-25.3-73.7-25.2c-1.5,0-2.8,1.1-3.1,2.6
			c-0.2,1.1,0.3,2.3,1.1,3c-19-1.6-34.4-0.5-46,3.2c-13.1,4.3-16.4,10.5-16.7,11.2l-2.4,5.1l12.9-2c-16.2,10.3-25.1,23.1-30,33
			c-6.9,14-7.3,25.3-7.4,25.8l-0.2,6.4l6.4-5c-13.5,28.7-6.9,53.3-6.6,54.5l3.4,12.4l2.4-12.6c5.1-26.3,19.7-48.6,43.6-66.4
			c0.6-0.5,1-1.2,1.2-1.9l0,0c0.4-2.6-2.6-4.4-4.7-2.8c-4.3,3.2-8.4,6.6-12.2,10.2c-13.8,12.9-23.7,27.7-29.5,44.1
			c0.1-12,2.8-29.6,15.1-47.5l10.9-15.9l-22.8,17.7c0.9-4.3,2.6-10.1,5.8-16.5c8.6-17.2,23.1-30.1,43.2-38.3
			c1.4-0.6,2.2-2.2,1.8-3.6c-0.4-1.5-1.9-2.4-3.4-2.2l-14.3,2.2c9.9-4.8,31.4-9.4,75.7-1.4c1.7,0.3,3.3-0.7,3.7-2.4
			c0.4-1.7-0.5-3.3-2.1-3.9l-4.9-1.7c15.2,1.8,34.6,6.3,44.4,17.1c-9,1.2-28.7,4.5-51.1,11.9c-1.1,0.4-1.9,1.3-2,2.4l0,0
			c-0.3,2.2,1.8,4,3.9,3.3c29.8-9.8,54.7-12.2,55-12.2L884.2,572.8z"/>
		<path id="XMLID_273_" class="st8" d="M785.6,596.6L785.6,596.6c-0.4,2.4,2.1,4.2,4.3,3.1c3.5-1.8,7.1-3.5,10.9-5.2
			c0.9-0.4,1.6-1.3,1.8-2.3l0,0c0.4-2.3-2-4.2-4.2-3.2c-3.9,1.7-7.6,3.5-11.2,5.4C786.4,594.9,785.8,595.7,785.6,596.6z"/>
		<path id="XMLID_241_" class="st9" d="M886.6,561.8c8.8-23.9-8-62.4-10.7-68.1c-0.1-0.1-0.3-0.1-0.3,0.1l2.5,26.4
			c0,0.3-0.4,0.4-0.5,0.1c-18.6-75-43.8-75.6-43.8-75.6l14,21.5c0,0.1,0,0.1-0.1,0.1c-39.4-37.6-80.1-21-80.1-21l15,8
			c-18.4-3.4-33.8-0.6-45,3.4c30-3.1,63.8,4.1,88.4,17.2C853.5,488.4,877.7,540.6,886.6,561.8z"/>
		<path id="XMLID_240_" class="st10" d="M886.6,561.8c-8.9-21.2-33.1-73.4-60.6-88.1c-24.6-13.1-58.3-20.3-88.4-17.2
			c-13,4.6-20.4,10.7-20.4,10.7c96.2-22.6,166.1,101.1,166.1,101.1C884.7,566.3,885.8,564.1,886.6,561.8z"/>
		<path id="XMLID_268_" class="st8" d="M845.7,468.4c1.1,1.1,2.9,1.1,4.1,0.1c1.2-1,1.5-2.7,0.6-4l-7.9-12.1
			c3.9,3.3,8.7,8.8,13.8,18c0.5,0.8,1.3,1.4,2.2,1.5l0,0c2.5,0.4,4.3-2.3,3.1-4.5c-3.3-6-6.9-11.1-10.6-15.2
			c-9.2-10.2-16.3-10.6-17.1-10.6l-5.7-0.1l7.1,11c-7.1-4.7-14.1-7.8-20.6-10c-1.7-0.6-3.6,0.6-3.9,2.4l0,0c-0.2,1.4,0.6,2.8,2,3.3
			C824.6,452,835.6,458.7,845.7,468.4z"/>
		<path id="XMLID_270_" class="st8" d="M878.7,492.4c-0.6-1.4-2.2-2.1-3.7-1.7c-1.1,0.3-2,1.2-2.2,2.2c-0.8-2.2-1.6-4.3-2.4-6.4
			c-0.4-1-1.3-1.7-2.3-1.9l0,0c-2.3-0.4-4.1,1.9-3.3,4.1c3.4,8.8,6.8,19.4,10,32.2c0.4,1.7,2,2.7,3.7,2.4c1.7-0.3,2.8-1.8,2.7-3.5
			l-0.5-5.1c4.5,14.7,8.4,34.2,2.5,47.5c-6.1-9.7-21.9-33.4-44.8-55.2c-17.4-16.6-35.4-28.8-53.5-36.4c-17.4-7.3-35-10.3-52.4-8.9
			c11-4.9,28.2-9.5,49.5-5.6l19,3.5l-25.4-13.5c4.3-0.9,10.3-1.7,17.5-1.4c1.5,0.1,3.1,0.2,4.6,0.3c1.6,0.2,3-0.9,3.3-2.5l0,0
			c0.3-1.7-0.9-3.3-2.7-3.4c-1.9-0.2-3.6-0.3-5.3-0.4c-15.6-0.6-26.1,3.6-26.5,3.8l-5.9,2.4l7.2,3.8c-31.7-0.6-51.5,15.4-52.4,16.2
			l-9.9,8.2l12.5-2.9c38.8-9.1,77.9,4.7,116.3,41.2c28.9,27.5,46.3,58.1,46.5,58.4l2.4,4.2l2.7-4C902,546.4,882.7,501.2,878.7,492.4
			z"/>
		<path id="XMLID_265_" class="st9" d="M891.3,571.1c24.2-8,62.1,10.1,67.8,12.9c0.1,0.1,0.1,0.3-0.1,0.3l-26.3-3.3
			c-0.3,0-0.4,0.4-0.1,0.5c74.4,21,74.1,46.2,74.1,46.2l-21.1-14.7c-0.1,0-0.1,0-0.1,0.1c36.3,40.6,18.4,80.8,18.4,80.8l-7.5-15.2
			c2.8,18.5-0.5,33.8-4.8,44.9c4-29.9-2-63.9-14.3-88.9C963.6,606.5,912.2,580.7,891.3,571.1z"/>
		<path id="XMLID_253_" class="st10" d="M891.3,571.1c20.9,9.6,72.3,35.5,86,63.5c12.3,25,18.4,59,14.3,88.9
			c-5,12.8-11.3,20-11.3,20c25.7-95.5-95.6-169.3-95.6-169.3C886.8,572.9,889,571.8,891.3,571.1z"/>
		<path id="XMLID_250_" class="st8" d="M977.4,742.6c10.4-38.5-2.2-78.1-37.4-117.5c-26.5-29.7-56.6-48.2-56.9-48.4l-4.1-2.5
			l4.1-2.6c24.1-15.4,68.6,5.3,77.3,9.6c1.4,0.7,2.1,2.2,1.6,3.7c-0.3,1.1-1.2,1.9-2.3,2.2c17.8,6.9,31.2,14.6,39.9,23.1
			c9.9,9.6,10.1,16.6,10.1,17.4l-0.1,5.7l-10.8-7.5c10,16.4,12.5,31.7,12.5,42.8c0.1,15.6-4.5,26-4.7,26.4l-2.6,5.9l-3.6-7.3
			c-0.4,31.7-17.1,50.9-17.9,51.9l-8.5,9.6L977.4,742.6z M1003.4,685.7c1-4.2,2.1-10.3,2-17.4c-0.2-19.2-7.6-37.1-22.1-53.3
			c-1-1.2-1-2.9,0-4.1c1-1.2,2.8-1.4,4-0.5l11.8,8.2c-6.8-8.6-24.1-22.2-67.4-34.5c-1.6-0.5-2.6-2.1-2.3-3.8
			c0.3-1.7,1.9-2.8,3.6-2.6l5.1,0.7c-14.5-5-33.9-9.5-47.4-4.1c9.5,6.4,32.7,23,53.7,46.5c16,17.9,27.6,36.3,34.6,54.6
			c6.7,17.7,9.1,35.3,7.2,52.6c5.2-10.8,10.4-27.8,7.2-49.3l-2.9-19.1L1003.4,685.7z"/>
		<path id="XMLID_249_" class="st9" d="M881.7,563.2c2.5-25.3,34.6-52.6,39.4-56.6c0.1-0.1,0.3,0,0.2,0.2l-13.8,22.6
			c-0.2,0.3,0.2,0.5,0.4,0.3c49.6-59.3,72.5-48.7,72.5-48.7l-22,13.2c-0.1,0,0,0.1,0,0.1c51.9-16.6,81.2,16.2,81.2,16.2l-16.9,0.6
			c18,5,30.6,14.3,39,22.7c-25.7-15.9-59.1-24.3-87-23.3C943.7,511.8,899,548.1,881.7,563.2z"/>
		<path id="XMLID_248_" class="st10" d="M881.7,563.2c17.3-15.1,61.9-51.5,93.1-52.6c27.9-1,61.3,7.3,87,23.3
			c9.7,9.8,13.6,18.5,13.6,18.5c-76.6-62.5-193.6,18.1-193.6,18.1C881.5,568.1,881.5,565.7,881.7,563.2z"/>
		<path id="XMLID_245_" class="st8" d="M1073.5,554.8c-30.9-25.2-72.1-29.9-122.6-13.9c-38,12-67.1,31.9-67.4,32.1l-4,2.7l-0.7-4.8
			c-4.2-28.3,32.9-60.4,40.4-66.6c1.2-1,2.9-1,4.1,0c0.9,0.8,1.2,1.9,1,3c13.6-13.4,26.1-22.5,37.3-27c12.8-5.1,19.3-2.4,20-2.1
			l5.2,2.4l-11.2,6.8c19-2.4,34.1,1.6,44.1,6.1c14.2,6.3,21.9,14.7,22.2,15.1l4.3,4.8l-8.1,0.3c28.7,13.4,39.5,36.4,40,37.6
			l5.3,11.7L1073.5,554.8z M1032.2,507.8c-3.4-2.7-8.5-6.1-15.1-8.9c-17.6-7.7-37-8.3-57.7-1.7c-1.5,0.5-3.1-0.2-3.7-1.6
			c-0.6-1.4-0.1-3.1,1.2-3.9l12.4-7.4c-10.7,2.7-30.1,12.9-59,47.4c-1.1,1.3-3,1.6-4.4,0.6c-1.4-1-1.8-2.9-0.9-4.3l2.7-4.4
			c-10.5,11.2-22.5,27-23.1,41.6c9.7-6.1,34.3-20.4,64.4-30c22.9-7.3,44.4-10.4,64-9.3c18.9,1.1,35.9,6.1,51,14.9
			c-7.8-9.2-21.1-20.9-42-26.7l-18.6-5.2L1032.2,507.8z"/>
	</g>
	<g id="XMLID_56_">
		<g id="XMLID_643_">
			<path id="XMLID_222_" class="st11" d="M900.8,790.7c7.8-5.2,22.6-0.8,37.8-7.6s16.6,2.6,32.5,4.3c15.9,1.7,30.2,2.6,31.7-11.2
				c1.5-13.9,71-8.9,79.6-11.7c8.7-2.8-14.8-14.5-5.4-36.6c9.4-22.1,46.8-11.9,57.7-15.6c10.9-3.6,13.2-18.1,23.6-22.7
				c10.4-4.6,27.2-0.5,22.4-12.9c-4.9-12.4,8.5-14.4,16.9-14.6s9.4-9,17.9-20.3c8.4-11.3,24.2-3.6,26.2-3.9s14-11.7,14.1-38
				s47.8-80.3,54.9-86.9c4.6-4.3,21.3-16.6,32.7-24.8c-0.9-1-2.1-1.9-2.9-2.8c2-1.8,3.6-3.5,5.6-4.9c1.9-1.3,4.1-2.2,6.1-3.5
				c0.8-0.5,1.8-1.6,1.8-2.4c0.2-3.3,0-6.4-2.9-8.9c-2-1.7-3.5-4.1-5.5-6.6c-2.7,1.6-6,3.9-9.5,5.7c-10.7,5.4-20.9,11.6-30,19.6
				c-3.5,3.1-7.4,5.8-11.4,8.3c-10.5,6.6-21,13-31.7,19.3c-2.6,1.6-3.9,3.3-3.1,6.5c0.2,0.9-0.3,2.4-1,3.1c-2.9,3.1-6,5.9-9,8.9
				c-2.9,2.9-5.6,6-6.2,10.3c-0.2,1.2-0.8,2.6-1.6,3.5c-2.8,3.3-5.8,6.4-8.7,9.7c-2.8,3.1-5.5,6.1-10.2,5.9c-0.9,0-1.9,0.5-2.7,1
				c-5.3,4-10.9,7.6-15.8,12.1c-7.2,6.7-14.5,12.9-23.9,16.4c-1.7,0.6-3.5,2.3-4.2,4c-1.1,2.6-2.7,3.8-5.4,4.1
				c-4.6,0.5-9.5,0.1-12.5,4.8c-0.3,0.5-1.2,0.7-1.9,1c-7.6,2.4-15.2,4.7-22.7,7.2c-1.2,0.4-2.7,1.5-2.9,2.6c-1,4.1-3.6,5.9-7.4,7
				c-7.3,2-13.8,5.8-19.5,10.8c-8.7,7.8-18.8,12.9-29.7,16.9c-1.5,0.6-2.8,1.8-4.2,2.6c-2.2,1.4-4.2,3.4-6.6,4
				c-9.3,2.6-17.6,7-25.2,13c-3,2.3-7,3.8-10.8,4.7c-8.9,2.1-18.1,3-26.5,6.9c-1.4,0.7-3,1.1-4.5,1.3c-8.8,1-16.6,5.1-24.2,9.1
				c-7.2,3.8-14,8.4-21,12.6c-1.4,0.8-3.1,1.4-4.6,2c-1,0.4-2.3,0.7-2.9,1.4c-5.3,6.7-13.1,9.8-19.9,14.3c-3.3,2.2-5.7,4.9-8,8.1
				c-2.9,4-6.8,7.4-10.4,10.9c-2.3,2.2-4.8,4.2-7.2,6.4c-3.1,2.8-6.1,5.8-9.3,8.5c-4,3.3-8.4,6.1-10.5,11.2c-0.9,2.1-2.2,4.2-3.6,6
				c-3,3.7-6.6,6.9-9.4,10.7c-1.4,1.9-2.7,3.8-4,5.8C873.9,795.1,895.1,794.4,900.8,790.7z"/>
			<path id="XMLID_223_" class="st12" d="M1005.1,811.2c1.4-0.7,2.9-1.5,3.9-2.7c1.9-2.3,4.1-3.3,7-3.7c2.7-0.4,2.6-2.2,1.2-4.9
				c-1.4-2.6-2.3-5.7-2.6-8.7c-0.2-1.6,1.4-3.4,2.4-5.6c4.7-3,9.6,1.1,14.6,1.6c2.5,0.2,4.4,0.1,6.7-0.8c3.1-1.2,6.4-1.8,9.5-2.8
				c4.4-1.4,5.8,2.4,8.1,4.6c0.3,0.3,0.8,0.5,0.7,0.5c2.9-1.3,5.9-2,7.9-3.8c2.2-2,6.6-0.5,7-4.8c1,0.1,2.4,0,2.8,0.5
				c0.8,1.1,1.1,2.6,1.7,4c0.8,0,1.4,0,2-0.1c4.2-0.7,8.3-2.3,12.8-0.7c1,0.4,3.5-1.2,4.1-2.4c1.3-2.8,3.1-4.2,6-5
				c1.7-0.5,3.8-2.2,4.2-3.8c0.3-1.2-1.8-3-2.8-4.5c-1.2-1.7-2.3-3.5-3.5-5.2c-2.9-4.1-3.4-10.2-9.8-11.5c-0.9-0.2-2.1-2-2.2-3.2
				c-0.2-2.2,0.1-4.5,0.4-6.7c0.3-2.5,0.1-5.2,3.1-6.4c1.7-0.7,3.3-1.7,4.7-2.5c1.6-0.1,3.3,0,4.7-0.5c2.2-0.8,4.1-2.6,6.2-2.9
				c6.7-0.8,13.4-1.2,20.1-1.6c0.8,0,1.8,0.6,2.5,1.1c3.1,2.6,6.8,2.5,10.4,2.5c2.6,0,5.7-2,7.7-1.1c3.8,1.6,4.6-0.3,5.8-2.9
				c0.5-1.1,1.8-2.4,2.9-2.5c3.5-0.4,4.2-2,3.5-5.2c-0.3-1.6,0-3.4,0.3-5.1c0.4-1.8,0.9-3.7,1.8-5.2c1.4-2.4,2.9-5.7,5-6.4
				c1.8-0.5,6.2,1.8,6.6,3.5c1,4.4,3.6,4.2,6.4,3.5c3.4-0.8,6.8-2.2,10.1-3.4c0.4-0.1,0.9-0.7,0.9-1c0.2-3.6,2.3-2.5,4.6-2.2
				c1.4,0.2,3.2-0.4,4.2-1.2c0.5-0.4,0.2-3.1-0.5-3.5c-4.9-3.3-4.6-8.5-5-13.3c-0.3-3.1,0.1-6.2,0.2-10.2c2.6,2.1,4.3,3.6,6.1,5
				c3.9,2.9,5.1,2.7,8.7-0.6c1.1-1,2.2-2,3.5-2.5c2.8-1.1,3.8-2.7,3.3-5.7c-0.2-1.2,0.6-3,1.5-3.8c2.1-1.9,2.5-4,1.8-6.5
				c-1.6-5.7,3.4-9.5,4.1-14.6c0.1-0.9,2.9-1.2,4.1-2.2c3.2-2.7,3.7-0.6,3.6,2c-0.1,7.4,2.9,13.3,7.9,18.5c2.3,2.4,3.9,2.3,6.5,0.1
				c1.5-1.3,3.5-2.4,5.5-2.9c4.3-1.1,6-4,3.6-7.7c-1.7-2.8-1.1-4,1.4-5.8c2-1.4,3.7-3.6,5-5.7c1.1-1.8,1.2-4.3,2.3-6.1
				c1.6-2.8,4.4-5.2,5.2-8.2c0.8-3.3,1.7-4.9,5.1-5.8c4.3-1.1,5.8-7.7,2.1-10.1c-4.1-2.7-4.6-6.4-5.1-10.5c-0.2-1.5-0.8-3-0.9-4.6
				c-0.1-1.6-0.4-3.4,0.2-4.8c1.6-3.7,4.2-6.3,8.3-7.4c5.8-1.5,9.3-8,7-13.4c-1.6-3.6-0.3-5,2.8-6.3c1-0.4,2.5-1.8,2.4-2.5
				c-1.2-6.7,3.1-10.4,7.5-13.7c3.8-2.8,5.7-6.4,6.5-10.8c0.9-4.7,7.3-8.9,11.9-7.6c2.5,0.7,5,2,7.5,2.6c1.2,0.3,2.6-0.6,3.9-0.9
				c-0.5-1.3-0.8-2.6-1.5-3.8c-0.6-1.2-1.6-2.1-2.7-3.5c2.1-0.5,3.6-0.9,5.7-1.4c-0.8-1.6-1.5-3.1-2.6-5.2c2.1-0.3,3.9-0.4,5.7-0.9
				c1.4-0.4,3.5-0.8,4-1.8c0.9-1.7,2.8-4.1-0.4-5.9c-2-1.1-1.3-2.3,0.4-3.1c1.5-0.8,3.1-1.5,4.8-2.3c-1-1.7-1.8-2.9-2.6-4.3
				c2.2-0.5,4-1,5.1-1.2c1-2.9,2.8-5.5,2.4-7.5c-0.3-1.1-1-2-1.9-2.9c-11.4,8.2-28.1,20.5-32.7,24.8c-7.1,6.6-54.8,60.6-54.9,86.9
				s-12.2,37.7-14.1,38s-17.8-7.5-26.2,3.9c-8.4,11.3-9.4,20.1-17.9,20.3s-21.8,2.2-16.9,14.6c4.9,12.4-11.9,8.3-22.4,12.9
				c-10.4,4.6-12.7,19-23.6,22.7c-10.9,3.6-48.3-6.5-57.7,15.6c-9.4,22.1,14.1,33.8,5.4,36.6c-8.7,2.8-78.1-2.2-79.6,11.7
				c-1.5,13.9-15.8,12.9-31.7,11.2c-15.9-1.7-17.3-11.1-32.5-4.3s-30,2.4-37.8,7.6c-5.7,3.8-26.9,4.5-39-3.3c-1.7,2.7-3.4,5.4-5,8.1
				c-0.6,1.1-0.2,3.2,0.5,4.4c0.8,1.4,2.4,2.5,3.9,3.4c1.5,0.9,3.2,2.1,4.9,2.1c3,0.1,6-3,9,0.2c0.2,0.2,0.7-0.1,1.1-0.1
				c7.1-0.5,11.8,2.3,14.6,8.8c6-1.3,10.3-4.7,12.9-10c2.2-0.3,4.4-0.7,5.7-2.1c2.3-2.6,3.6-1.9,5.9,0c3.2,2.6,7,4.6,10.7,6.6
				c0.8,0.4,2.8-0.3,3.6-1.1c2.6-2.6,4.9-5.6,9-5.9c0.6-0.1,1.2-1.2,1.7-1.8c1.3-1.6,2.4-3.3,3.8-4.8c0.8-0.9,2.1-1.4,3.1-2.1
				c0.5,1.1,1.3,2.2,1.6,3.4c0.5,1.7,0.4,4.1,3,3.6c2.7-0.5,4.3,0.7,6.1,2.2c0.8,0.7,1.8,1.6,2.7,1.6c3.8,0,7.6-0.4,11.4-0.4
				c2,0,4,0.2,6,0.4c2.1,0.2,4.3,0.5,6.4,1c2,0.5,4.8,0.6,5.9,1.9c3.1,3.7,8.9,0.7,11.6,5C1002.3,812.2,1004.2,811.7,1005.1,811.2z"
				/>
			<path id="XMLID_234_" class="st8" d="M1107,633.9c5.4-4.9,11.4-8.2,17.8-9.9c5.5-1.5,8.8-4.5,10.1-9.3c0.1-0.1,0.3-0.2,0.5-0.3
				c2-0.7,4-1.3,6-2c1.9-0.6,3-2.5,2.7-4.4l0,0c-0.4-2.4-2.8-4-5.2-3.2c-2,0.7-4.1,1.3-6.1,2c-2.2,0.7-4.9,2.8-5.6,5.4
				c-0.5,1.9-1.3,3.2-4.6,4c-7.6,2.1-14.7,6-21.1,11.7c-5.5,4.9-12,9-19.9,12.7c-1.6,0.7-2.6,2.5-2.3,4.2l0,0c0.4,2.6,3.2,4.2,5.7,3
				C1093.8,643.9,1100.9,639.3,1107,633.9z"/>
			<path id="XMLID_236_" class="st8" d="M1006.9,814.8c1.8-0.9,3.7-1.9,5.1-3.6c1.2-1.4,2.4-2,4.5-2.3c3-0.4,4.4-2,5-3.2
				c1.6-3.1-0.2-6.4-0.8-7.5c-1.1-2-1.8-4.4-2.1-6.9c0.1-0.3,0.5-1,0.8-1.4c0.2-0.3,0.4-0.7,0.6-1.1c1.1-0.3,2.6,0.1,5.2,1
				c1.8,0.6,3.9,1.3,6.1,1.6c3.4,0.3,5.8,0,8.5-1c1.6-0.6,3.3-1.1,5.1-1.6c1.4-0.4,2.8-0.7,4.2-1.2c0.4-0.1,0.6-0.1,0.6-0.1
				c0,0,0.1,0,0.1,0.1l-1.5,0.7l5.3,3.4c1.1,0.9,2.7,1.6,4.5,0.9l2.3-0.9l0-0.1c0.1-0.1,0.3-0.1,0.4-0.2c2.2-0.8,4.5-1.7,6.4-3.5
				c0.2-0.1,0.9-0.3,1.3-0.4c0.9-0.2,2.4-0.6,3.8-1.5l1,2.7l2.9-0.2c0.2,0,0.5,0,0.7,0c0.5,0,1.1,0,1.8-0.1c1-0.2,2-0.4,3-0.6
				c3-0.6,5.4-1.2,7.8-0.3c3.4,1.3,7.9-1.8,9.1-4.4c0.8-1.6,1.7-2.4,3.6-3c2.8-0.9,6-3.4,6.9-6.6c0.8-2.8-1.1-5.1-2.4-6.7
				c-0.3-0.4-0.7-0.8-0.9-1.1l-0.6-0.8c-1-1.4-2-2.9-3-4.4c-0.6-0.9-1.2-2.1-1.8-3.3c-1.6-3.4-3.8-8-9.6-9.6c0,0,0,0,0,0
				c-0.2-1.4,0.1-3.1,0.3-4.9l0.1-0.8c0-0.4,0.1-0.7,0.1-1.1c0.1-0.6,0.1-1.7,0.3-1.9c0,0,0.1-0.1,0.2-0.1c1.5-0.6,2.8-1.3,3.9-2
				c0.2-0.1,0.3-0.2,0.5-0.3c0.2,0,0.3,0,0.5,0c1.3,0,2.8-0.1,4.4-0.6c1.3-0.5,2.4-1.1,3.3-1.7c0.7-0.4,1.6-1,2.1-1
				c5.9-0.7,12-1.1,17.9-1.5l1.5-0.1c0.1,0,0.2,0.1,0.3,0.2c4.3,3.5,9.3,3.5,13,3.4c1.6,0,3.1-0.5,4.4-0.9c0.6-0.2,1.5-0.4,1.9-0.5
				c6.9,2.8,9.4-2.3,10.5-4.5l0.2-0.4c0.1-0.1,0.2-0.3,0.3-0.4c2.5-0.4,4.2-1.3,5.4-2.9c1.7-2.3,1.4-5.1,1-6.9
				c-0.2-1,0.2-2.7,0.3-3.5c0.3-1.3,0.7-2.9,1.3-4c0.3-0.5,0.6-1,0.9-1.5c0.4-0.8,1.2-2.2,1.8-2.8c0.6,0.2,1.4,0.6,1.8,1
				c0.7,2.4,1.9,4.2,3.6,5.3c2.8,1.7,6,1,7.5,0.6c2.9-0.7,5.6-1.7,8.2-2.7c0.8-0.3,1.6-0.6,2.3-0.9c1.3-0.5,2.6-1.6,3.2-3.1
				c0.1,0,0.2,0,0.3,0c2.5,0.4,5.4-0.5,7.4-2.2c1.2-1,1.8-2.6,1.7-4.6c-0.1-1.4-0.5-3.9-2.5-5.3c-2.6-1.7-2.9-4.2-3.1-8.5
				c0-0.6-0.1-1.2-0.1-1.9c0-0.5-0.1-1.1-0.1-1.7c0,0,0,0,0,0c5.4,4,8.8,3.7,13.8-0.9c0.7-0.7,1.6-1.5,2.3-1.7
				c4.5-1.8,6.5-5.2,5.8-9.8c0.1-0.2,0.2-0.4,0.2-0.4c3.2-2.8,4.2-6.4,3-10.6c-0.5-1.8,0.2-3.4,1.6-6c0.8-1.5,1.7-3.2,2.2-5
				c0.2,0,0.1,0,0.3,0c0.6,6.7,3.5,12.8,8.9,18.4c3.7,3.8,7.7,4,12,0.3c1.1-0.9,2.5-1.7,3.9-2c4.6-1.2,6.4-3.7,7.2-5.5
				c0.7-1.8,1.1-4.6-1.1-8.2c0,0-0.1-0.1-0.1-0.1c0.1-0.1,0.2-0.2,0.3-0.2c2.2-1.5,4.2-3.8,6.1-6.9c0.9-1.4,1.3-2.9,1.6-4.2
				c0.2-0.8,0.5-1.6,0.7-2.1c0.5-0.8,1.1-1.7,1.9-2.6c1.4-1.8,3-3.9,3.7-6.5c0.6-2.5,0.9-2.6,2.3-2.9c3.6-1,6.4-4.2,7-8.1
				c0.6-3.7-0.8-7.3-3.7-9.2c-2.4-1.6-2.9-3.5-3.4-7.6c-0.1-1-0.3-1.8-0.5-2.6c-0.2-0.7-0.3-1.3-0.4-1.8l-0.1-0.6
				c-0.1-0.7-0.2-1.9-0.1-2.2c1.2-2.9,3-4.5,5.7-5.2c4-1.1,7.4-3.8,9.3-7.6c1.8-3.6,1.9-7.7,0.4-11.2c-0.1-0.3-0.2-0.5-0.2-0.6
				c0.2-0.1,0.5-0.3,0.9-0.4c1.8-0.8,5.3-3.5,4.7-6.9c-0.7-4,1.3-6.3,6-9.8c4.3-3.2,7-7.6,8-13.3c0.2-1.2,1.4-2.6,2.9-3.5
				c1.4-0.9,3-1.2,4-1c0.9,0.3,1.9,0.6,2.9,1c1.5,0.6,3.1,1.2,4.8,1.6c2,0.4,3.7-0.2,4.9-0.7c0.3-0.1,0.6-0.2,0.9-0.3l4.3-1.1
				l-1.5-4.2c-0.1-0.3-0.2-0.7-0.4-1c-0.2-0.7-0.5-1.5-0.9-2.3l4.8-1.2l-2.4-4.7c0.2,0,0.4-0.1,0.6-0.2l0.4-0.1
				c2-0.5,4.8-1.2,6.1-3.7c0.1-0.2,0.2-0.3,0.3-0.5c0.6-1.1,1.5-2.5,1.6-4.4c0.1-0.9-0.1-2.3-1-3.7c0.2-0.1,0.4-0.2,0.6-0.3l5.5-2.7
				l-2.1-3.4l1.8-0.4l0.7-2.1c0.3-0.8,0.6-1.6,1-2.3c1-2.2,2.1-4.7,1.5-7.4c-0.5-2-1.7-3.5-2.9-4.8c0.7-0.6,1.4-1.2,2.1-1.7
				c0.8-0.6,1.8-1.1,2.8-1.6c1-0.5,2.1-1.1,3.1-1.8c1.7-1.1,3.5-3.1,3.7-5.5c0.1-2.6,0.4-8.1-4.3-12.2c-1-0.9-2-2.2-3.1-3.6
				c-0.6-0.8-1.2-1.6-1.9-2.4l-2.2-2.7l-3,1.8c-0.8,0.5-1.7,1-2.6,1.6c-2,1.3-4.3,2.8-6.7,3.9c-12.7,6.5-22.5,12.8-30.8,20.1
				c-2.9,2.5-6.4,5-10.9,7.9c-9.3,5.8-19.4,12-31.6,19.2c-4.3,2.5-5.9,6-5,10.4c-1.8,1.8-3.6,3.7-5.5,5.5c-1.1,1.1-2.2,2.2-3.3,3.3
				c-3.1,3.1-6.6,6.9-7.4,12.6c-0.1,0.4-0.3,1-0.7,1.5c-1.6,1.9-3.4,3.9-5.1,5.8c-1.2,1.3-2.3,2.6-3.5,3.9c-2.9,3.3-4.5,4.6-7.1,4.5
				c-2.4-0.1-4.4,1.2-5.2,1.8c-1.4,1.1-2.9,2.1-4.3,3.1c-0.8,0.6-1.6,1.1-2.3,1.7c-1.2,0.9-1.8,2.3-1.6,3.8l0,0
				c0.4,3,3.9,4.4,6.3,2.6c0.7-0.5,1.5-1.1,2.3-1.6c1.5-1.1,3-2.1,4.4-3.2c0.1-0.1,0.3-0.2,0.4-0.2c6.6,0.2,10.5-4.3,13.1-7.2
				c1.1-1.3,2.3-2.5,3.4-3.8c1.8-1.9,3.6-3.9,5.3-6c1.3-1.6,2.3-3.6,2.5-5.6c0.4-2.9,2.2-5.2,5.1-8.1c1.1-1.1,2.2-2.1,3.3-3.2
				c1.9-1.9,3.9-3.8,5.8-5.8c1.5-1.5,2.6-4.4,2-6.8c-0.2-1-0.3-1.1,1.2-2c12.3-7.3,22.3-13.5,31.7-19.3c4.9-3.1,8.7-5.8,11.9-8.6
				c7.8-6.8,17.1-12.9,29.1-19c2.4-1.2,4.7-2.7,6.8-4c1.1,1.5,2.3,3,3.9,4.3c1.2,1,1.6,2.2,1.5,4.9c0,0,0,0,0,0
				c-0.7,0.5-1.6,0.9-2.5,1.4c-1.2,0.6-2.5,1.3-3.8,2.2c-1.6,1.1-2.9,2.4-4.2,3.6c-0.5,0.5-1.1,1-1.7,1.6l-3,2.7l2.7,3
				c0.6,0.7,1.3,1.3,2,2c0.6,0.6,1.6,1.5,1.9,2c-0.1,0.5-0.6,1.6-0.9,2.3c-0.1,0.3-0.3,0.6-0.4,0.9l-8.4,2l3.2,5.3
				c-0.3,0.2-0.6,0.3-0.9,0.5c-3.2,1.6-3.7,3.9-3.8,5.2c0,1.1,0.3,3,2.6,4.6c0,0.1-0.1,0.1-0.1,0.2c0,0,0,0,0,0.1
				c-0.4,0.1-1,0.3-1.4,0.4l-0.5,0.1c-1,0.2-2.1,0.4-3.3,0.5c-0.6,0.1-1.3,0.2-1.9,0.3l-5.5,0.8l2.8,5.6l-6.8,1.7l3.8,4.9
				c0.1,0.2,0.3,0.4,0.4,0.6c-1.1-0.4-2.3-0.9-3.5-1.2c-3.2-0.9-7-0.2-10.4,1.8c-3.5,2.1-5.9,5.4-6.6,8.8c-0.7,3.8-2.2,6.3-5,8.4
				c-3.5,2.6-9.9,7.4-9.3,15.9c-1.9,0.8-4.1,2.1-5.1,4.6c-0.8,2-0.6,4.2,0.5,6.9c0.8,1.9,0.2,3.7-0.2,4.5c-0.8,1.7-2.4,3-4.1,3.4
				c-5,1.3-8.7,4.6-11,9.7c-0.9,2.2-0.7,4.4-0.5,6.2l0.1,0.5c0.1,1.1,0.4,2.2,0.6,3.1c0.2,0.6,0.3,1.2,0.4,1.7
				c0.5,4,1.2,9.5,6.9,13.3c0.3,0.2,0.3,0.8,0.2,1.2c-0.1,0.8-0.6,1.5-1.2,1.7c-5.8,1.5-7.1,5.3-8,8.8c-0.2,1-1.2,2.2-2.2,3.5
				c-0.8,1.1-1.8,2.3-2.6,3.7c-0.7,1.3-1.1,2.7-1.4,3.8c-0.2,0.9-0.5,1.7-0.8,2.2c-1.3,2.1-2.6,3.7-3.8,4.5
				c-1.6,1.1-6.6,4.6-2.5,11.2c0.3,0.5,0.4,0.8,0.4,1c-0.2,0.1-0.6,0.5-1.7,0.8c-2.5,0.7-5,2-7.1,3.7c-0.3,0.2-0.5,0.4-0.7,0.5
				c-0.1-0.1-0.2-0.2-0.3-0.3c-4.7-4.9-6.9-9.9-6.8-15.6c0-1.3,0.1-5.3-3.2-6.8c-2.1-1-4.5-0.4-7,1.7c-0.2,0.1-0.8,0.3-1.1,0.4
				c-1.4,0.5-4.1,1.5-4.5,4.4c-0.2,1.3-0.9,2.8-1.8,4.4c-1.6,3.1-3.6,6.9-2.2,11.9c0.4,1.3,0.2,1.7-0.6,2.4
				c-1.7,1.5-3.3,4.6-2.9,7.4c0.1,0.5,0.1,0.8,0.1,0.9c-0.1,0.1-0.3,0.2-0.9,0.4c-2,0.8-3.5,2.2-4.8,3.3c-1,1-1.6,1.4-1.9,1.5
				c-0.3-0.1-0.8-0.4-1.8-1.2c-1.1-0.8-2.2-1.7-3.5-2.8c-0.7-0.6-1.5-1.3-2.4-2l-6.3-5.2l-0.2,8.1c0,1.3-0.1,2.4-0.2,3.5
				c-0.1,2.4-0.2,4.7,0,7.1c0,0.6,0.1,1.1,0.1,1.7c0.2,3.5,0.6,8,3.5,11.7c-1.4-0.2-3-0.1-4.5,1.1c-1,0.8-1.7,1.9-2.1,3.3
				c-0.3,0.1-0.7,0.2-1,0.4c-2.5,0.9-4.9,1.8-7.2,2.4c-0.7,0.2-1.1,0.2-1.4,0.3c-0.1-0.2-0.2-0.4-0.2-0.8c-0.6-2.4-2.7-4-4.3-5
				c-1.3-0.7-4.5-2.3-7.3-1.5c-3.3,1-5.1,4.2-6.5,6.8c-0.3,0.5-0.5,0.9-0.7,1.3c-1.3,2.1-1.9,4.4-2.3,6.4c-0.5,2.1-0.8,4.4-0.4,6.7
				c0,0.1,0.1,0.3,0.1,0.4c0,0-0.1,0-0.1,0c-3,0.3-5.2,3.1-6,4.6l-0.2,0.4c-0.1,0.2-0.2,0.4-0.3,0.7c-0.1,0-0.1,0-0.2-0.1
				c-2.5-1.1-5-0.3-7,0.3c-0.8,0.2-1.8,0.5-2.3,0.5c-3.5,0.1-5.9,0-7.8-1.6c-1.2-1-3.1-2.2-5.3-2.1l-2,0.1c-6,0.4-12.2,0.7-18.4,1.5
				c-2.1,0.3-3.8,1.3-5.2,2.1c-0.7,0.4-1.4,0.8-1.9,1c-0.4,0.1-1.2,0.2-1.9,0.2c-0.6,0-1.2,0-1.8,0.1l-0.8,0.1l-0.7,0.4
				c-0.5,0.2-0.9,0.5-1.4,0.8c-0.9,0.5-1.9,1.1-2.8,1.5c-5,1.9-5.4,6.4-5.6,8.7c0,0.3-0.1,0.6-0.1,0.9l-0.1,0.8
				c-0.3,2.1-0.5,4.4-0.3,6.8c0.3,2.4,2.3,6.1,5.4,6.7c2.4,0.5,3.2,1.8,4.9,5.3c0.7,1.5,1.4,3,2.5,4.5c1,1.4,1.9,2.8,2.9,4.2
				l0.6,0.9c0.4,0.6,0.9,1.2,1.4,1.8c0,0,0.1,0.1,0.1,0.1c-0.3,0.2-0.6,0.4-0.8,0.4c-4,1.2-6.6,3.4-8.3,6.9
				c-0.1,0.1-0.2,0.2-0.3,0.3c-4.1-1.2-7.8-0.4-11.1,0.3c-0.4,0.1-0.8,0.2-1.3,0.3c-0.3-0.7-0.7-1.4-1.2-2.1c-1.4-1.9-3.7-1.9-4.8-2
				c-0.2,0-0.4,0-0.5,0l-4.2-0.6l-0.4,4c-0.3,0.1-0.6,0.2-0.9,0.2c-1.4,0.3-3.3,0.8-4.9,2.2c-0.8,0.7-2.3,1.3-3.8,1.9
				c-0.2,0.1-0.3,0.1-0.5,0.2c0,0-0.1-0.1-0.1-0.1c-1.7-2.1-4.9-5.9-10.8-4c-1.2,0.4-2.4,0.7-3.7,1.1c-2,0.5-4,1-6,1.8
				c-1.5,0.6-2.8,0.7-4.9,0.5c-1.3-0.1-2.7-0.6-4.2-1.2c-3.5-1.2-8.3-2.9-13,0.2l-1,0.6l-0.5,1.1c-0.3,0.6-0.6,1.2-0.9,1.8
				c-0.9,1.7-2,3.6-1.8,5.9c0.3,3.4,1.3,6.7,2.7,9.6c-3.1,0.8-5.5,2.3-7.5,4.7c-0.5,0.5-1.6,1.1-2.4,1.5c-2.3-1.9-5-2.2-6.9-2.4
				c-1.8-0.2-2.6-0.3-3.1-0.8c-1.8-2.1-4.6-2.6-6.8-3c-0.5-0.1-0.9-0.1-1.3-0.2c-2.3-0.5-4.5-0.8-6.8-1l-0.3,0
				c-2-0.2-4.1-0.5-6.2-0.4c-1.8,0-3.5,0.1-5.2,0.2c-1.9,0.1-3.7,0.2-5.5,0.2c-0.2-0.2-0.5-0.4-0.7-0.5l-0.1-0.1
				c-1.5-1.3-4-3.4-7.7-3.3c0-0.2-0.1-0.4-0.1-0.5c-0.3-1.3-0.9-2.3-1.4-3.2c-0.2-0.3-0.3-0.6-0.5-0.9l-2-4l-3.8,2.4
				c-0.3,0.2-0.5,0.3-0.8,0.5c-0.9,0.5-2.1,1.2-3.1,2.2c-1.1,1.2-2,2.4-2.9,3.5c-0.4,0.5-0.8,1.1-1.2,1.6c-0.1,0.2-0.3,0.3-0.4,0.5
				c-4.2,0.9-6.9,3.6-9.1,5.9c-0.3,0.3-0.5,0.5-0.8,0.8c-3.3-1.7-6.4-3.5-9.1-5.6c-1.9-1.6-6.4-5.2-11.4,0.4c-0.2,0.2-1,0.5-3.2,0.8
				l-2.1,0.3l-0.9,1.9c-1.7,3.4-4.1,5.7-7.3,7c-3.6-5.7-9.2-8.5-16.4-8.1c-3.3-2.2-6.6-1.1-8.5-0.5c-0.6,0.2-1.4,0.4-1.7,0.4
				c-0.5,0-1.9-0.9-2.7-1.4l-0.3-0.2c-0.6-0.4-2.1-1.3-2.5-2c-0.1-0.2-0.2-0.5-0.2-0.8c3.1-5.3,5.8-9.5,8.5-13.1
				c1.5-2,3.2-3.9,5.1-5.8c1.4-1.5,2.9-3.1,4.2-4.7c1.8-2.2,3.3-4.6,4.3-7.1c1.3-3.3,4.1-5.5,7.2-8c0.7-0.6,1.4-1.1,2.1-1.7
				c2.2-1.8,4.2-3.7,6.1-5.6c1.1-1,2.2-2.1,3.3-3.1c0.9-0.8,1.8-1.6,2.8-2.4c1.5-1.3,3.1-2.6,4.5-4.1c0.8-0.8,1.6-1.5,2.4-2.3
				c2.9-2.8,6-5.7,8.5-9.1c2.3-3.3,4.4-5.4,7-7.1c1.8-1.2,3.8-2.4,5.8-3.5c5.2-3,10.5-6.1,14.7-11.3c0.1-0.1,0.3-0.1,0.4-0.2
				c0.4-0.1,0.8-0.3,1.2-0.5c0.5-0.2,1-0.4,1.4-0.6c1.1-0.4,2.4-0.9,3.6-1.7c2.5-1.5,4.9-3,7.3-4.5c4.4-2.7,8.9-5.6,13.5-8l0.3-0.1
				c7.5-3.9,14.6-7.6,22.5-8.5c2-0.2,4-0.8,5.8-1.6c5.7-2.7,11.9-3.9,18.4-5.2c2.4-0.5,4.9-1,7.3-1.5c5.1-1.2,9.2-3,12.3-5.4
				c3.9-3,7.8-5.5,11.9-7.6c1.5-0.8,2.4-2.4,2.1-4.1h0c-0.4-2.7-3.3-4.2-5.8-3c-4.5,2.3-8.9,5.1-13.2,8.4c-2.1,1.7-5.3,3-9.2,3.9
				c-2.3,0.5-4.7,1-7.1,1.5c-6.7,1.3-13.6,2.7-20.2,5.7c-1,0.5-2.2,0.8-3.3,0.9c-9.5,1.1-17.5,5.3-25.3,9.3l-0.3,0.1
				c-4.9,2.5-9.5,5.5-14.1,8.3c-2.3,1.5-4.8,3-7.2,4.4c-0.7,0.4-1.5,0.7-2.4,1.1c-0.6,0.2-1.2,0.5-1.8,0.7c-0.2,0.1-0.4,0.2-0.6,0.2
				c-1,0.4-2.6,0.9-3.8,2.4c-3.3,4.2-7.9,6.9-12.8,9.7c-2,1.2-4.2,2.4-6.2,3.8c-3.4,2.2-6.2,5.1-9.1,9.1c-2,2.8-4.7,5.3-7.5,8
				c-0.8,0.8-1.7,1.6-2.5,2.4c-1.3,1.3-2.7,2.4-4.1,3.7c-1,0.8-2,1.7-2.9,2.6c-1.1,1-2.3,2.1-3.4,3.2c-1.9,1.8-3.8,3.6-5.7,5.2
				c-0.6,0.5-1.3,1-1.9,1.6c-3.5,2.8-7.6,6-9.7,11.2c-0.7,1.7-1.7,3.4-3,5c-1.2,1.5-2.5,2.9-3.9,4.4c-1.9,2-3.9,4.1-5.6,6.5
				c-3,3.9-5.9,8.5-9.2,14.3c-0.8,1.5-1,3.2-0.7,4.8c0.2,1.4,0.7,2.8,1.3,3.7c1.2,2.1,3.2,3.5,5.2,4.7l0.3,0.2
				c1.8,1.1,4,2.5,6.6,2.6c1.7,0.1,3.2-0.4,4.4-0.8c0.6-0.2,1.4-0.5,1.6-0.5c0,0,0.1,0,0.2,0.2c1.1,1.1,2.5,1.5,4.4,1.2
				c5.3-0.4,8.4,1.6,10.5,6.4l1.3,3l3.2-0.7c6.4-1.4,11.3-4.8,14.6-10.3c2.2-0.4,4.4-1.2,6-3c0.1,0.1,0.3,0.2,0.5,0.4
				c3.5,2.9,7.4,4.9,11.4,7c2.8,1.4,6.6-0.1,8.3-1.8c0.3-0.3,0.7-0.7,1-1.1c2.2-2.3,3.5-3.5,5.5-3.7c2.3-0.2,3.6-2,4.2-3
				c0.1-0.1,0.2-0.3,0.2-0.4c0.5-0.6,0.9-1.2,1.3-1.8c0.3-0.3,0.5-0.7,0.8-1c1.5,4.6,5,4.7,7.1,4.3c0.7-0.1,1-0.1,2.7,1.4l0.1,0.1
				c1.1,1,2.9,2.5,5.2,2.5c2.2,0,4.4-0.1,6.6-0.2c1.7-0.1,3.3-0.2,4.9-0.2c1.6,0,3.4,0.2,5.2,0.4l0.3,0c2.2,0.3,4.1,0.5,6,0.9
				c0.5,0.1,1.1,0.2,1.7,0.3c0.7,0.1,1.7,0.3,2.2,0.5c2.5,2.8,5.7,3.2,8.1,3.4c2.2,0.2,2.7,0.4,3,0.9
				C1000.9,817.6,1005.9,815.3,1006.9,814.8z"/>
			<path id="XMLID_237_" class="st8" d="M1171.8,601.5c3.8-0.4,6.6-2.4,8.3-5.9c0.5-1.1,1.9-2.3,3.1-2.7c0.4-0.2,0.8-0.3,1.3-0.5
				c1.7-0.7,2.6-2.5,2.3-4.2l0,0c-0.4-2.6-3.1-4.1-5.5-3.1c-0.3,0.1-0.7,0.3-1,0.4c-3.2,1.3-5.8,3.7-7.4,6.8c-0.6,1.1-1,1.3-2,1.4
				c0,0,0,0,0,0l-2,2.5l0.5,3.6C1169.6,600.8,1170.6,601.6,1171.8,601.5L1171.8,601.5z"/>
		</g>
		<g id="XMLID_47_" class="st13">
			<path id="XMLID_57_" class="st0" d="M1008,700.7c-0.7-2.6,0.8-5.3,3.4-6.1c26.7-8.3,59-26.3,90.3-43.8
				c17.5-9.8,34.1-19,49.2-26.4c35.4-17.1,69.4-44,80.5-53.2c2.1-1.7,5.2-1.5,7,0.6l0,0c1.8,2.1,1.6,5.3-0.6,7.1
				c-11.4,9.4-45.7,36.6-82.5,54.4c-14.9,7.2-31.3,16.4-48.7,26.1c-31.8,17.7-64.6,36-92.3,44.6C1011.6,705,1008.8,703.4,1008,700.7
				L1008,700.7z"/>
		</g>
	</g>
	<g id="XMLID_55_">
		<path id="XMLID_125_" class="st5" d="M440.2,695.2v9.7c0,0,18,3.9,51.8,5.4s418.2-13.6,418.2-13.6s6.7-5.9,8.6-13.8
			c0.4-1.8-0.9-3.5-2.7-3.5C875.1,679.9,461.2,686,440.2,695.2z"/>
		<path id="XMLID_122_" class="st8" d="M498.7,714.4c-3,0-5.3,0-6.9-0.1c-33.8-1.4-51.8-5.3-52.5-5.5l-3.1-0.7v-15.5l2.4-1.1
			c3.5-1.5,14-6.2,231.9-11.5c110.9-2.7,224-4.4,245.5-4.7c2.1,0,4.1,0.9,5.4,2.6c1.3,1.7,1.8,3.8,1.3,5.9c-2.2,9-9.6,15.6-9.9,15.8
			l-1.1,0.9l-1.4,0.1C895.4,701.2,559.4,714.4,498.7,714.4z M444.2,701.6c6.5,1.1,22.9,3.6,48,4.7c32.2,1.4,389.7-12.5,416.3-13.6
			c1.5-1.6,4.5-5.1,6-9.3c-163.3,2.3-438.1,7.9-470.3,14.8V701.6z"/>
		<path id="XMLID_58_" class="st14" d="M658.7,683.4c-99.8,2.3-154,6.9-183.5,11.2c64.4-1.4,184-3.9,210.7-3.9
			c36.9,0,219.3-4.2,219.3-4.2s1-0.9,2.6-2C893.3,680.4,849.4,679,658.7,683.4z"/>
		<path id="XMLID_224_" class="st15" d="M918.5,678.6c-3.2-1.8-18.7-6.4-93.6-6.4c-93.6,0-368.9,11.7-368.9,11.7
			s-20.9,0.9-22.3,11.7c0,0,16.6-0.4,41.4-0.9c29.4-4.3,83.7-8.9,183.5-11.2c190.8-4.4,234.7-3,249.1,1.1c2.8-2.1,7.3-5,10.6-5.2
			C918.7,679.3,918.8,678.8,918.5,678.6z"/>
		<path id="XMLID_112_" class="st8" d="M716.8,690.3L716.8,690.3c0,2.2,1.8,4,4.1,4c17.2-0.3,38.2-0.7,59.7-1.1c2.2,0,3.9-1.8,3.9-4
			v0c0-2.2-1.8-4-4.1-4c-21.5,0.4-42.5,0.8-59.7,1.1C718.5,686.3,716.8,688.1,716.8,690.3z"/>
		<path id="XMLID_113_" class="st8" d="M920.5,675.1c-7.9-4.6-41-7-95.6-7c-92.6,0-366.3,11.6-369.1,11.7
			c-2.5,0.1-24.3,1.4-26.1,15.2l-0.6,4.6l4.7-0.1c1.8,0,147.3-3.3,218.7-4.4c2.2,0,3.9-1.8,3.9-4v0c0-2.2-1.8-4-4.1-4
			c-61.7,1-178.7,3.5-210.6,4.2c4.2-2.3,10.7-3.3,14.4-3.5c2.8-0.1,276.3-11.7,368.7-11.7c48.8,0,71.8,2,82.5,3.7
			c-1.6,1-2.9,2-3.8,2.8c-7.9,0.2-48,1.1-92.1,2c-2.2,0-3.9,1.8-3.9,4v0c0,2.2,1.8,4,4.1,4c48.8-1,92.6-2,93.5-2l1.4,0l1.1-0.9
			c2.9-2.4,8.3-6.1,10.9-6.3c1.1-0.1,2.2-0.5,2.9-1.3C923.5,679.6,922.8,676.4,920.5,675.1z"/>
		<path id="XMLID_114_" class="st8" d="M685.8,686.7c-0.7,0-1.5,0-2.3,0c-2.2,0-4,1.8-4,4l0,0c0,2.2,1.8,4,4,4c0.8,0,1.6,0,2.3,0
			c1.1,0,2.4,0,3.9,0c2.2,0,4-1.8,4-4v0c0-2.2-1.8-4-4-4C688.3,686.7,687,686.7,685.8,686.7z"/>
		<path id="XMLID_62_" class="st16" d="M1027,685.8c-5.1,1.2-10.3,2.5-13.4,3.4c0,0-15.1,4.8-34.1,5.8c-19,1-563.1,12.5-582.1,9.6
			c-12.6-1.9-26.6-4.5-34.7-6.1c-4.2-0.8-8.4,1.6-9.8,5.6c-2.5,7.2-4.4,18.9,3.1,28.9c11.9,15.8,36.7,19.1,36.7,19.1l-0.1,52
			c0,0,24.8,1.6,63.4,3.3v-57.5c0-14.3,12.9-25.9,28.9-25.9h0c16,0,28.9,11.6,28.9,25.9v58.2c0,0-19.6,0.4-37.9,0.1
			c54.9,2.3,129.5,4.5,200.7,3.7c-0.4,0-0.8-0.1-1.2-0.1v-65.4c0-16.3,15.9-29.5,35.5-29.5h0c19.6,0,35.5,13.2,35.5,29.5v66
			c66.8,2.1,211.6,5.8,257.9-0.4c0,0-7.6-51.9,3.6-74.2c8.3-16.6,16.4-31.2,24.9-43.7C1035.8,690.1,1031.9,684.6,1027,685.8z
			 M853.8,812.2c0,0-38.3,0.9-57.8-0.7v-64.2c0-16,12.9-28.9,28.9-28.9h0c16,0,28.9,12.9,28.9,28.9V812.2z M972.1,813.2
			c0,0-54.1,1-81.6-0.7V747c0-16.3,18.3-29.5,40.8-29.5h0c22.5,0,40.8,13.2,40.8,29.5V813.2z"/>
		<path id="XMLID_215_" class="st17" d="M711,713c0,0,44.7,0.5,53,36l1.7,61.9l-18.7-2.5c0,0,5.2-51.5,0-66.6
			C741.8,726.7,711,713,711,713z"/>
		<path id="XMLID_218_" class="st17" d="M821.7,717.5c0,0,45.3-7.2,48.9,31.2l0.4,62.2l-17.4-2.9c0,0,5.2-51.5,0-66.6
			C848.5,726.3,821.7,717.5,821.7,717.5z"/>
		<path id="XMLID_219_" class="st17" d="M936.5,713.7c0,0,48.5-3.4,52.2,34.9l0.4,62.2l-17.4-2.9c0,0,5.2-51.5,0-66.6
			C966.5,726.3,936.5,713.7,936.5,713.7z"/>
		<path id="XMLID_216_" class="st6" d="M658.7,858.8c-195.5-10.9-312.6-27.9-382.4-45.3c11.4,16.9,31.1,34.9,61.7,49.6
			c87.6,42.2,711.8,25.7,756.1,12.4c44.3-13.3,54.7-23.8,86-47.5c17.8-13.5,22-29.7,22.3-41.1
			C1173.9,819.2,1066.2,881.4,658.7,858.8z"/>
		<path id="XMLID_217_" class="st5" d="M1202.4,786.8c0.2-8.7-1.8-14.6-1.8-14.6c-0.5-1.8,2.9-8.8,2.7-12.2
			c-0.2-3.4-39.8,2-44.1,7.9c-4.3,5.9,3.6,7.9,3.6,7.9c13,46.8-277.1,35.3-349.1,36s-363-3.4-428.2-8.2
			c-65.3-4.8-89.7-26.4-89.7-26.4s14.9-13-14.4-19.2c-19.1-4.1-26.4,23.8-5.1,55.4c69.8,17.4,186.8,34.5,382.4,45.3
			C1066.2,881.4,1173.9,819.2,1202.4,786.8z"/>
		<g id="XMLID_25_">
			<path id="XMLID_169_" class="st18" d="M828.5,840.3c-67.5,0-136.2-1.6-198.2-3.1c-40.6-1-78.9-1.9-111.3-2.1
				c-114.1-1-176.6-15.4-208.9-27.2c-35.4-13-43.6-25.7-43.9-26.2l2.6-1.6c0.1,0.1,8.3,12.6,43.1,25.3
				c32.2,11.7,94.2,25.8,207.2,26.8c32.4,0.3,70.7,1.2,111.3,2.1c102.8,2.4,230.7,5.4,336.4,0c123.1-6.3,193.9-22.5,216.6-49.6
				c6.7-8,9-16.8,7-26.7l2.9-0.6c2.2,10.8-0.4,20.6-7.6,29.3C1148.7,830.8,992.1,840.3,828.5,840.3z"/>
		</g>
		<g id="XMLID_162_">
			<path id="XMLID_167_" class="st18" d="M801.3,857.9c-64.7,0-129-1.3-185.9-2.4c-35-0.7-68-1.3-96.3-1.6
				c-114.1-1-176.6-15.4-208.9-27.2c-35.4-13-43.6-25.7-43.9-26.2l2.6-1.6c0.1,0.1,8.3,12.6,43.1,25.3
				c32.2,11.7,94.2,25.8,207.2,26.8c28.3,0.3,61.4,0.9,96.4,1.6c208.5,4.1,523.5,10.3,576.7-53.5c6.7-8,9-16.7,7-26.6l2.9-0.6
				c2.2,10.7-0.4,20.4-7.6,29.1c-24,28.8-99.3,46.2-230.2,53.3C912.8,857,857,857.9,801.3,857.9z"/>
		</g>
		<g id="XMLID_164_">
			<path id="XMLID_166_" class="st19" d="M806.6,881c-63.6,0-127.3-1.4-184.1-2.6c-37.4-0.8-72.8-1.6-103.5-1.9
				c-90.3-0.8-157.1-7.5-193.2-19.3c-27.8-9.1-28.5-18.1-28.5-19.2l3,0l-1.5,0l1.5-0.1c0,0.3,5,33.6,218.8,35.5
				c30.7,0.3,66.1,1,103.5,1.9c115,2.5,258.1,5.6,371.9-3.4c62.4-4.9,109.2-12.8,143.1-24.1c38.1-12.7,58.7-29.7,61.3-50.6l3,0.4
				c-5.2,41.4-73,66.7-207.2,77.4C937.1,879.6,871.9,881,806.6,881z"/>
		</g>
		<path id="XMLID_161_" class="st20" d="M445.7,865.4c-10.1,0-18.3-8.2-18.3-18.3s8.2-18.3,18.3-18.3S464,837,464,847.1
			S455.8,865.4,445.7,865.4z M445.7,842.7c-2.4,0-4.3,1.9-4.3,4.3s1.9,4.3,4.3,4.3c2.4,0,4.3-1.9,4.3-4.3S448.1,842.7,445.7,842.7z"
			/>
		<path id="XMLID_5_" class="st21" d="M824.9,718.5L824.9,718.5c-16,0-28.9,12.9-28.9,28.9v64.2c19.5,1.6,57.8,0.7,57.8,0.7v-64.9
			C853.8,731.4,840.9,718.5,824.9,718.5z"/>
		<path id="XMLID_70_" class="st22" d="M456,807.5c5.5,0.4,12.6,0.7,19.9,0.8C469,808,462.3,807.7,456,807.5L456,807.5z"/>
		<path id="XMLID_9_" class="st23" d="M1024.7,699.6"/>
		<path id="XMLID_4_" class="st23" d="M354.9,713"/>
		<g id="XMLID_63_">
			
				<rect id="XMLID_130_" x="685.6" y="380" transform="matrix(3.906220e-003 1 -1 3.906220e-003 1395.5573 22.3098)" class="st7" width="2" height="663.3"/>
		</g>
		<polygon id="XMLID_95_" class="st7" points="354.7,724.9 354.7,726.9 471.4,726.9 477,724.9 		"/>
		<rect id="XMLID_172_" x="493.9" y="724.9" class="st7" width="189.6" height="2"/>
		<g id="XMLID_67_">
			<rect id="XMLID_160_" x="739.8" y="724.9" class="st7" width="63.3" height="2"/>
		</g>
		<g id="XMLID_71_">
			<rect id="XMLID_158_" x="848.1" y="724.9" class="st7" width="54.6" height="2"/>
		</g>
		<g id="XMLID_74_">
			<rect id="XMLID_157_" x="961.1" y="724.9" class="st7" width="50.7" height="2"/>
		</g>
		<g id="XMLID_75_">
			<rect id="XMLID_128_" x="364.5" y="738.4" class="st7" width="92.8" height="2"/>
		</g>
		<g id="XMLID_60_">
			<rect id="XMLID_127_" x="391.2" y="752.6" class="st7" width="63.6" height="2"/>
		</g>
		<g id="XMLID_61_">
			<rect id="XMLID_126_" x="390" y="766.6" class="st7" width="63.6" height="2"/>
		</g>
		<g id="XMLID_97_">
			<rect id="XMLID_29_" x="391.2" y="780.9" class="st7" width="63.6" height="2"/>
		</g>
		<g id="XMLID_98_">
			<rect id="XMLID_26_" x="390" y="795.6" class="st7" width="63.6" height="2"/>
		</g>
		<g id="XMLID_103_">
			<rect id="XMLID_156_" x="518.6" y="752.6" class="st7" width="157" height="2"/>
		</g>
		<g id="XMLID_102_">
			<rect id="XMLID_155_" x="515.5" y="766.6" class="st7" width="160" height="2"/>
		</g>
		<g id="XMLID_100_">
			<rect id="XMLID_154_" x="518.6" y="780.9" class="st7" width="157" height="2"/>
		</g>
		<g id="XMLID_99_">
			<rect id="XMLID_150_" x="515.5" y="795.6" class="st7" width="157" height="2"/>
		</g>
		<g id="XMLID_108_">
			<rect id="XMLID_149_" x="746.9" y="752.6" class="st7" width="49.1" height="2"/>
		</g>
		<g id="XMLID_106_">
			<rect id="XMLID_148_" x="746" y="766.6" class="st7" width="50.1" height="2"/>
		</g>
		<g id="XMLID_105_">
			<rect id="XMLID_147_" x="746.9" y="780.9" class="st7" width="49.1" height="2"/>
		</g>
		<g id="XMLID_104_">
			<rect id="XMLID_146_" x="746" y="795.6" class="st7" width="49.1" height="2"/>
		</g>
		<g id="XMLID_117_">
			<rect id="XMLID_145_" x="854.5" y="752.6" class="st7" width="33.2" height="2"/>
		</g>
		<g id="XMLID_116_">
			<rect id="XMLID_144_" x="853.8" y="766.6" class="st7" width="33.8" height="2"/>
		</g>
		<g id="XMLID_111_">
			<rect id="XMLID_143_" x="854.5" y="780.9" class="st7" width="33.2" height="2"/>
		</g>
		<g id="XMLID_110_">
			<rect id="XMLID_142_" x="853.8" y="795.6" class="st7" width="33.2" height="2"/>
		</g>
		<g id="XMLID_124_">
			<rect id="XMLID_141_" x="971.7" y="752.6" class="st7" width="30" height="2"/>
		</g>
		<g id="XMLID_123_">
			<rect id="XMLID_140_" x="971.1" y="766.6" class="st7" width="30.6" height="2"/>
		</g>
		<g id="XMLID_120_">
			<rect id="XMLID_138_" x="971.7" y="780.9" class="st7" width="30" height="2"/>
		</g>
		<g id="XMLID_119_">
			<rect id="XMLID_137_" x="971.1" y="795.6" class="st7" width="30" height="2"/>
		</g>
		<g id="XMLID_81_">
			<rect id="XMLID_135_" x="511" y="738.4" class="st7" width="165.6" height="2"/>
		</g>
		<g id="XMLID_64_">
			<rect id="XMLID_133_" x="746" y="738.4" class="st7" width="50.1" height="2"/>
		</g>
		<g id="XMLID_65_">
			<rect id="XMLID_132_" x="853.8" y="738.4" class="st7" width="38.6" height="2"/>
		</g>
		<g id="XMLID_96_">
			<rect id="XMLID_131_" x="972.1" y="738.4" class="st7" width="36.7" height="2"/>
		</g>
		<g id="XMLID_6_">
			<path id="XMLID_107_" class="st8" d="M711,713c-17,0-31.6,9.2-37.1,22c-1.1,2.5,0.7,5.3,3.4,5.3h0.5c1.5,0,2.8-0.9,3.5-2.3
				c4.4-9.9,16-16.9,29.7-16.9c17.4,0,31.5,11.4,31.5,25.5v62.2c-11.1,0.2-43.1,0.5-63-0.5v-19.7c0-2.2-1.8-4-4-4l0,0
				c-2.2,0-4,1.8-4,4v27.1l3.7,0.3c11.3,0.8,27.5,1,41.7,1c15.6,0,28.7-0.3,29.7-0.3l3.9-0.1v-70.1C750.6,728,732.8,713,711,713z"/>
			<path id="XMLID_109_" class="st8" d="M675.5,753.6L675.5,753.6c-2.2,0-4,1.8-4,4v4.7c0,2.2,1.8,4,4,4l0,0c2.2,0,4-1.8,4-4v-4.7
				C679.5,755.4,677.7,753.6,675.5,753.6z"/>
		</g>
		<path id="XMLID_86_" class="st8" d="M829.7,816.5c-11.5,0-24.8-0.2-34-1l-3.7-0.3v-67.8c0-18.1,14.8-32.9,32.9-32.9
			s32.9,14.8,32.9,32.9v68.8l-3.9,0.1C853.1,816.2,842.5,816.5,829.7,816.5z M800,807.8c15.8,1,40.3,0.7,49.8,0.5v-60.9
			c0-13.7-11.2-24.9-24.9-24.9c-13.7,0-24.9,11.2-24.9,24.9V807.8z"/>
		<path id="XMLID_78_" class="st8" d="M938.1,817.4c-16.3,0-35.1-0.2-47.9-1l-3.8-0.2V747c0-18.5,20.1-33.5,44.8-33.5
			c24.7,0,44.8,15,44.8,33.5v70.1l-3.9,0.1C971.8,817.2,956.5,817.4,938.1,817.4z M894.5,808.6c23.3,1.1,61.4,0.7,73.6,0.6V747
			c0-14-16.5-25.5-36.8-25.5c-20.3,0-36.8,11.4-36.8,25.5V808.6z"/>
		<g id="XMLID_3_">
			<defs>
				<path id="XMLID_87_" d="M442.7,862.8c-10.1,0-18.3-8.2-18.3-18.3s8.2-18.3,18.3-18.3s18.3,8.2,18.3,18.3
					S452.8,862.8,442.7,862.8z M442.7,840.2c-2.4,0-4.3,1.9-4.3,4.3s1.9,4.3,4.3,4.3c2.4,0,4.3-1.9,4.3-4.3S445.1,840.2,442.7,840.2
					z"/>
			</defs>
			<clipPath id="XMLID_325_">
				<use xlink:href="#XMLID_87_"  style="overflow:visible;"/>
			</clipPath>
			<path id="XMLID_7_" class="st24" d="M442.7,862.8c-10.1,0-18.3-8.2-18.3-18.3s8.2-18.3,18.3-18.3s18.3,8.2,18.3,18.3
				S452.8,862.8,442.7,862.8z M442.7,840.2c-2.4,0-4.3,1.9-4.3,4.3s1.9,4.3,4.3,4.3c2.4,0,4.3-1.9,4.3-4.3S445.1,840.2,442.7,840.2z
				"/>
			<rect id="XMLID_85_" x="441.2" y="826.2" class="st25" width="3" height="14.2"/>
			<rect id="XMLID_84_" x="446.6" y="843" class="st25" width="14.5" height="3"/>
			<rect id="XMLID_83_" x="441.2" y="848.2" class="st25" width="3" height="14.6"/>
			<rect id="XMLID_82_" x="424.4" y="843" class="st25" width="14.4" height="3"/>
		</g>
		<path id="XMLID_184_" class="st20" d="M624.4,872.8c-10.1,0-18.3-8.2-18.3-18.3s8.2-18.3,18.3-18.3s18.3,8.2,18.3,18.3
			S634.5,872.8,624.4,872.8z M624.4,850.1c-2.4,0-4.3,1.9-4.3,4.3s1.9,4.3,4.3,4.3c2.4,0,4.3-1.9,4.3-4.3S626.8,850.1,624.4,850.1z"
			/>
		<g id="XMLID_173_">
			<defs>
				<path id="XMLID_174_" d="M621.4,870.2c-10.1,0-18.3-8.2-18.3-18.3s8.2-18.3,18.3-18.3s18.3,8.2,18.3,18.3
					S631.5,870.2,621.4,870.2z M621.4,847.5c-2.4,0-4.3,1.9-4.3,4.3s1.9,4.3,4.3,4.3c2.4,0,4.3-1.9,4.3-4.3S623.8,847.5,621.4,847.5
					z"/>
			</defs>
			<clipPath id="XMLID_326_">
				<use xlink:href="#XMLID_174_"  style="overflow:visible;"/>
			</clipPath>
			<path id="XMLID_181_" class="st26" d="M621.4,870.2c-10.1,0-18.3-8.2-18.3-18.3s8.2-18.3,18.3-18.3s18.3,8.2,18.3,18.3
				S631.5,870.2,621.4,870.2z M621.4,847.5c-2.4,0-4.3,1.9-4.3,4.3s1.9,4.3,4.3,4.3c2.4,0,4.3-1.9,4.3-4.3S623.8,847.5,621.4,847.5z
				"/>
			<rect id="XMLID_180_" x="619.9" y="833.5" class="st27" width="3" height="14.2"/>
			<rect id="XMLID_179_" x="625.3" y="850.4" class="st27" width="14.5" height="3"/>
			<rect id="XMLID_178_" x="619.9" y="855.6" class="st27" width="3" height="14.6"/>
			<rect id="XMLID_177_" x="603.1" y="850.4" class="st27" width="14.4" height="3"/>
		</g>
		<path id="XMLID_198_" class="st20" d="M813.4,871c-10.1,0-18.3-8.2-18.3-18.3s8.2-18.3,18.3-18.3s18.3,8.2,18.3,18.3
			S823.5,871,813.4,871z M813.4,848.4c-2.4,0-4.3,1.9-4.3,4.3s1.9,4.3,4.3,4.3c2.4,0,4.3-1.9,4.3-4.3S815.8,848.4,813.4,848.4z"/>
		<g id="XMLID_187_">
			<defs>
				<path id="XMLID_188_" d="M810.4,868.4c-10.1,0-18.3-8.2-18.3-18.3s8.2-18.3,18.3-18.3s18.3,8.2,18.3,18.3
					S820.5,868.4,810.4,868.4z M810.4,845.8c-2.4,0-4.3,1.9-4.3,4.3s1.9,4.3,4.3,4.3c2.4,0,4.3-1.9,4.3-4.3S812.8,845.8,810.4,845.8
					z"/>
			</defs>
			<clipPath id="XMLID_327_">
				<use xlink:href="#XMLID_188_"  style="overflow:visible;"/>
			</clipPath>
			<path id="XMLID_195_" class="st28" d="M810.4,868.4c-10.1,0-18.3-8.2-18.3-18.3s8.2-18.3,18.3-18.3s18.3,8.2,18.3,18.3
				S820.5,868.4,810.4,868.4z M810.4,845.8c-2.4,0-4.3,1.9-4.3,4.3s1.9,4.3,4.3,4.3c2.4,0,4.3-1.9,4.3-4.3S812.8,845.8,810.4,845.8z
				"/>
			<rect id="XMLID_194_" x="808.9" y="831.8" class="st29" width="3" height="14.2"/>
			<rect id="XMLID_193_" x="814.3" y="848.6" class="st29" width="14.5" height="3"/>
			<rect id="XMLID_192_" x="808.9" y="853.8" class="st29" width="3" height="14.6"/>
			<rect id="XMLID_191_" x="792" y="848.6" class="st29" width="14.4" height="3"/>
		</g>
		<path id="XMLID_212_" class="st20" d="M1035.4,865.4c-10.1,0-18.3-8.2-18.3-18.3s8.2-18.3,18.3-18.3s18.3,8.2,18.3,18.3
			S1045.5,865.4,1035.4,865.4z M1035.4,842.7c-2.4,0-4.3,1.9-4.3,4.3s1.9,4.3,4.3,4.3c2.4,0,4.3-1.9,4.3-4.3
			S1037.8,842.7,1035.4,842.7z"/>
		<g id="XMLID_201_">
			<defs>
				<path id="XMLID_202_" d="M1032.4,862.8c-10.1,0-18.3-8.2-18.3-18.3s8.2-18.3,18.3-18.3c10.1,0,18.3,8.2,18.3,18.3
					S1042.5,862.8,1032.4,862.8z M1032.4,840.2c-2.4,0-4.3,1.9-4.3,4.3s1.9,4.3,4.3,4.3c2.4,0,4.3-1.9,4.3-4.3
					S1034.8,840.2,1032.4,840.2z"/>
			</defs>
			<clipPath id="XMLID_328_">
				<use xlink:href="#XMLID_202_"  style="overflow:visible;"/>
			</clipPath>
			<path id="XMLID_209_" class="st30" d="M1032.4,862.8c-10.1,0-18.3-8.2-18.3-18.3s8.2-18.3,18.3-18.3c10.1,0,18.3,8.2,18.3,18.3
				S1042.5,862.8,1032.4,862.8z M1032.4,840.2c-2.4,0-4.3,1.9-4.3,4.3s1.9,4.3,4.3,4.3c2.4,0,4.3-1.9,4.3-4.3
				S1034.8,840.2,1032.4,840.2z"/>
			<rect id="XMLID_208_" x="1030.9" y="826.2" class="st31" width="3" height="14.2"/>
			<rect id="XMLID_207_" x="1036.4" y="843" class="st31" width="14.5" height="3"/>
			<rect id="XMLID_206_" x="1030.9" y="848.2" class="st31" width="3" height="14.6"/>
			<rect id="XMLID_205_" x="1014.1" y="843" class="st31" width="14.4" height="3"/>
		</g>
		<path id="XMLID_121_" class="st17" d="M484.9,719.9c0,0,37.9,0,44.9,26.7l1.7,61.9l-18.7-2.5c0,0,5.2-51.5,0-66.6
			C507.6,724.3,484.9,719.9,484.9,719.9z"/>
		<path id="XMLID_226_" class="st8" d="M469.8,730.5L469.8,730.5c0-3.4-3.9-5.2-6.5-3.1c-2.9,2.3-5.4,5.1-7.3,8.2
			c-1.6,2.6,0.4,6,3.5,6h0c1.4,0,2.7-0.8,3.5-2c1.4-2.3,3.2-4.3,5.3-6C469.2,732.8,469.8,731.7,469.8,730.5z"/>
		<path id="XMLID_227_" class="st8" d="M484.9,719.9c0,0-0.1,0-0.1,0c-1.5,0-2.7,1.2-2.7,2.7v2.5c0,1.5,1.3,2.7,2.8,2.7c0,0,0,0,0,0
			c13.7,0,24.9,9.8,24.9,21.9v54.3c-9.5,0.2-34,0.4-49.8-0.5v-44.3c0-2.2-1.8-4-4-4l0,0c-2.2,0-4,1.8-4,4v51.8l3.7,0.3
			c9.2,0.7,22.5,0.9,34,0.9c12.7,0,23.4-0.2,24.2-0.2l3.9-0.1v-62.1C517.8,733.4,503.1,719.9,484.9,719.9z"/>
		<path id="XMLID_115_" class="st8" d="M909.4,819.5c-85.2,0-189.6-3.9-197.2-4.2c-142.5,3.8-318.1-7.2-319.8-7.3l-3.8-0.2l0.1-52.4
			c-7.6-1.6-25.8-6.6-35.9-20c-6.5-8.7-7.8-20.3-3.6-32.6c2-5.9,8.2-9.4,14.3-8.2c7.4,1.4,21.8,4.2,34.5,6.1
			c7.6,1.2,113.5-0.1,290.4-3.4c141.9-2.7,281.7-5.8,290.9-6.2c18.2-0.9,32.9-5.5,33.1-5.6l0.2-0.1c2.7-0.7,7.2-1.8,13.5-3.4
			c3.9-0.9,7.9,0.6,10.1,3.9c2.3,3.3,2.3,7.5,0,10.8c-7.7,11.3-15.6,25.1-24.6,43.2c-10.5,20.9-3.3,71.3-3.2,71.8l0.6,4l-4,0.5
			C985.6,818.7,949.7,819.5,909.4,819.5z M712.2,807.3l0.1,0c2.3,0.1,222.2,8.4,287.6,1.3c-1.6-12.9-5.3-52.8,4.5-72.5
			c9.2-18.5,17.2-32.5,25.2-44.1c0.5-0.8,0.2-1.4,0-1.7c-0.2-0.3-0.8-0.9-1.7-0.6c-6.2,1.5-10.6,2.6-13.3,3.3
			c-1.5,0.5-16.3,5-35,5.9c-9.3,0.5-149.2,3.6-291.1,6.2c-127.3,2.4-281.3,4.9-291.8,3.3c-12.9-1.9-27.4-4.7-34.8-6.1
			c-2.3-0.4-4.5,0.8-5.2,3c-2.3,6.9-3.8,16.8,2.5,25.2c10.7,14.3,33.8,17.5,34,17.5l3.5,0.5l0,3.5l-0.1,48.3
			c26.3,1.6,184.9,10.6,315.5,7L712.2,807.3z"/>
		<path id="XMLID_118_" class="st8" d="M713,894.1c-127.8,0-328-3.9-376.8-27.4c-36.6-17.6-55.3-38.6-64.6-53
			c-10.9-17-14.9-34.6-10.7-47.1c3.3-9.8,11.5-14.6,21.2-12.5c12.5,2.7,19.4,7,21,13.2c0.9,3.7-0.2,6.9-1.7,9.2
			c8.3,5.5,34,19.4,84.3,23.1c64.4,4.7,353.2,8.9,427.9,8.1c11-0.1,27.3,0.1,46.2,0.3c49.9,0.5,118.2,1.3,178.2-1.8
			c87.4-4.5,113.2-15.2,119.5-23.3c1.1-1.4,1.6-2.8,1.6-4.2c-1.8-0.9-3.9-2.4-4.9-5c-0.7-1.8-0.9-4.7,1.6-8.2
			c5.4-7.5,40.5-12.2,47.5-10.1c3.3,1,3.7,3.6,3.8,4.3c0.1,2.5-0.8,5.5-1.7,8.4c-0.3,1.1-0.8,2.6-1,3.4c0.6,2.2,2.6,10,1.5,20.1
			c-1.2,10.8-6.3,26.4-23.6,39.5c-3.3,2.5-6.3,4.8-9.2,7c-25.1,19.3-37.7,29-78.1,41.1c-24.1,7.3-197.1,14.3-362.9,14.8
			C726.1,894.1,719.7,894.1,713,894.1z M277.8,761.6c-5.4,0-8,4-9.2,7.6c-2.7,7.8-1.5,22.5,9.8,40.2c8.7,13.6,26.5,33.4,61.4,50.2
			c36.4,17.6,179.5,27.3,392.5,26.6c177.8-0.5,339.8-8.2,360.6-14.5c38.9-11.7,51.1-21.1,75.5-39.8c2.9-2.2,6-4.6,9.3-7.1
			c28.5-21.6,19.5-50.1,19.1-51.3l-0.1-0.2c-0.6-2,0.2-4.3,1.2-7.5c0.3-0.9,0.6-2,0.9-3c-8.8-0.2-33.2,4.1-36.4,7.5
			c-0.2,0.3-0.4,0.6-0.4,0.7c0.4,0.3,1.3,0.8,1.8,0.9l2.3,0.6l0.6,2.2c1.3,4.6,0.4,9.1-2.7,13.1c-22.2,28.9-168.6,29.7-304.2,28.2
			c-18.9-0.2-35.2-0.4-46.1-0.3c-74.8,0.7-364-3.4-428.6-8.2c-65.8-4.8-91-26.5-92.1-27.4l-3.4-3l3.4-3c0.7-0.7,2.8-3.1,2.3-4.9
			c-0.3-1-2.2-4.6-14.9-7.3C279.5,761.7,278.6,761.6,277.8,761.6z"/>
	</g>
	<path id="XMLID_229_" class="st8" d="M297.5,937.1h-38.7c-3.6,0-6.6-3-6.6-6.6l0,0c0-3.6,3-6.6,6.6-6.6h38.7c3.6,0,6.6,3,6.6,6.6
		l0,0C304.1,934.1,301.1,937.1,297.5,937.1z"/>
	<g id="XMLID_231_">
		<path id="XMLID_304_" class="st0" d="M495.2,395.2c5.5-18,1.8-39-25-41.5c-18.4-1.7-28.7,13.9-33.3,23.7c-0.2,5.1,0.7,9.7,2,13.1
			c0.5,1.2-0.6,2.4-1.8,2.1c-3-0.9-7.1-1.5-10.6,0.3c-3.6,1.9-4.9,4.8-5.4,6.9c-0.3,1.5-1.6,2.6-3.1,2.8c-4.8,0.6-14.1,2.5-14.6,8.8
			H525C522.9,389,495.2,395.2,495.2,395.2z"/>
		<path id="XMLID_305_" class="st32" d="M519.8,387.2c-5.5-2.2-9.3-2-11.7-1.3c-1.3,0.4-2.6-0.6-2.6-2c0.4-10.5-1.3-41.8-33.8-40
			c-25.8,1.4-34.3,19.3-34.7,33.7c4.6-9.9,14.8-25.4,33.3-23.7c26.8,2.5,30.5,23.5,25,41.5c0,0,27.6-6.3,29.7,16.2h3.5
			C528.4,411.4,529.9,391.2,519.8,387.2z"/>
		<path id="XMLID_300_" class="st8" d="M531.7,414.9h-132l0.3-3.8c0.6-6.4,6.9-10.7,17.7-12c0.9-4.1,3.5-7.4,7.3-9.3
			c2.7-1.4,6-1.9,9.7-1.3c-2.3-8.7-1.5-21.2,4.7-31.1c4.5-7.2,13.8-16,32.1-17c11-0.6,19.9,2.3,26.3,8.6c10,9.8,11.3,25.3,11.3,33.2
			c2.8-0.4,6.8-0.2,12,1.8c12.2,4.8,11.1,25.4,10.9,27.7L531.7,414.9z M411,407.9h114c-0.1-5.9-1.4-15.4-6.5-17.5
			c-4.7-1.9-7.7-1.7-9.5-1.2c-1.7,0.5-3.5,0.1-4.9-1c-1.4-1.1-2.1-2.7-2.1-4.5c0.2-6.1-0.3-21.2-9.1-29.8c-5-4.9-12-7.1-21-6.6
			c-12.3,0.7-21.3,5.3-26.6,13.8c-5.8,9.2-5.9,21.3-3,28.1c0.8,1.8,0.4,3.9-0.9,5.3c-1.3,1.5-3.3,2-5.2,1.4c-2.3-0.7-5.5-1.2-8,0
			c-2,1-3.2,2.5-3.6,4.5c-0.6,3-3.1,5.2-6.1,5.6C416,406.4,413.2,407,411,407.9z"/>
		<g id="XMLID_296_">
			<path id="XMLID_297_" class="st8" d="M407.9,414.9h-39.3c-1.9,0-3.5-1.6-3.5-3.5l0,0c0-1.9,1.6-3.5,3.5-3.5h39.3
				c1.9,0,3.5,1.6,3.5,3.5l0,0C411.4,413.3,409.8,414.9,407.9,414.9z"/>
		</g>
		<g id="XMLID_298_">
			<path id="XMLID_299_" class="st8" d="M356.1,414.9h-1.2c-1.9,0-3.5-1.6-3.5-3.5l0,0c0-1.9,1.6-3.5,3.5-3.5h1.2
				c1.9,0,3.5,1.6,3.5,3.5l0,0C359.6,413.3,358,414.9,356.1,414.9z"/>
		</g>
	</g>
	<g id="XMLID_303_">
		<path id="XMLID_314_" class="st0" d="M1061.4,413.6c5.5-18,1.8-39-25-41.5c-18.4-1.7-28.7,13.9-33.3,23.7c-0.2,5.1,0.7,9.7,2,13.1
			c0.5,1.2-0.6,2.4-1.8,2.1c-3-0.9-7.1-1.5-10.6,0.3c-3.6,1.9-4.9,4.8-5.4,6.9c-0.3,1.5-1.6,2.6-3.1,2.8c-4.8,0.6-14.1,2.5-14.6,8.8
			h121.5C1089,407.3,1061.4,413.6,1061.4,413.6z"/>
		<path id="XMLID_313_" class="st32" d="M1085.9,405.5c-5.5-2.2-9.3-2-11.7-1.3c-1.3,0.4-2.6-0.6-2.6-2c0.4-10.5-1.3-41.8-33.8-40
			c-25.8,1.4-34.3,19.3-34.7,33.7c4.6-9.9,14.8-25.4,33.3-23.7c26.8,2.5,30.5,23.5,25,41.5c0,0,27.6-6.3,29.7,16.2h3.5
			C1094.6,429.7,1096,409.5,1085.9,405.5z"/>
		<path id="XMLID_310_" class="st8" d="M1097.8,433.2h-132l0.3-3.8c0.6-6.4,6.9-10.7,17.7-12c0.9-4.1,3.5-7.4,7.3-9.3
			c2.7-1.4,6-1.9,9.7-1.3c-2.3-8.7-1.5-21.2,4.7-31.1c4.5-7.2,13.8-16,32.1-17c11-0.6,19.9,2.3,26.3,8.6c10,9.8,11.3,25.3,11.3,33.2
			c2.8-0.4,6.8-0.2,12,1.8c12.2,4.8,11.1,25.4,10.9,27.7L1097.8,433.2z M977.1,426.2h114c-0.1-5.9-1.4-15.4-6.5-17.5
			c-4.7-1.9-7.7-1.7-9.5-1.2c-1.7,0.5-3.5,0.1-4.9-1c-1.4-1.1-2.1-2.7-2.1-4.5c0.2-6.1-0.3-21.2-9.1-29.8c-5-4.9-12-7.1-21-6.6
			c-12.3,0.7-21.3,5.3-26.6,13.8c-5.8,9.2-5.9,21.3-3,28.1c0.8,1.8,0.4,3.9-0.9,5.3c-1.3,1.5-3.3,2-5.2,1.4c-2.3-0.7-5.5-1.2-8,0
			c-2,1-3.2,2.5-3.6,4.5c-0.6,3-3.1,5.2-6.1,5.6C982.1,424.7,979.3,425.3,977.1,426.2z"/>
		<g id="XMLID_308_">
			<path id="XMLID_309_" class="st8" d="M974,433.2h-39.3c-1.9,0-3.5-1.6-3.5-3.5l0,0c0-1.9,1.6-3.5,3.5-3.5H974
				c1.9,0,3.5,1.6,3.5,3.5l0,0C977.5,431.7,976,433.2,974,433.2z"/>
		</g>
		<g id="XMLID_306_">
			<path id="XMLID_307_" class="st8" d="M922.2,433.2H921c-1.9,0-3.5-1.6-3.5-3.5l0,0c0-1.9,1.6-3.5,3.5-3.5h1.2
				c1.9,0,3.5,1.6,3.5,3.5l0,0C925.7,431.7,924.1,433.2,922.2,433.2z"/>
		</g>
	</g>
	<g id="XMLID_101_">
		<path id="XMLID_93_" class="st12" d="M264.3,696.3c1-8-2.7-15.3-6.4-20.4c-1-0.2-2-0.3-3-0.3c-11,0-20,8.9-20,20
			c0,7.6,4.3,14.3,10.6,17.6C256.4,713.4,263,706.9,264.3,696.3z"/>
		<path id="XMLID_220_" class="st33" d="M257.9,675.9c3.7,5.1,7.4,12.4,6.4,20.4c-1.3,10.5-7.9,17.1-18.8,17c2.8,1.5,6,2.4,9.4,2.4
			c11,0,20-8.9,20-20C274.8,685.7,267.5,677.4,257.9,675.9z"/>
		<path id="XMLID_52_" class="st8" d="M254.8,718c-12.3,0-22.4-10-22.4-22.4c0-12.3,10-22.4,22.4-22.4c12.3,0,22.4,10,22.4,22.4
			C277.2,708,267.2,718,254.8,718z M254.8,678.1c-9.7,0-17.6,7.9-17.6,17.6s7.9,17.6,17.6,17.6c9.7,0,17.6-7.9,17.6-17.6
			S264.5,678.1,254.8,678.1z"/>
		<path id="XMLID_66_" class="st12" d="M421.7,690.2c1.6,12.9,11.1,19.8,26.8,15.9c3.9-3.6,6.4-8.8,6.4-14.6c0-11-8.9-20-20-20
			c-3.4,0-6.5,0.8-9.3,2.3C422.9,678.4,420.9,684.1,421.7,690.2z"/>
		<path id="XMLID_221_" class="st33" d="M421.7,690.2c-0.8-6.1,1.2-11.8,3.9-16.4c-6.4,3.3-10.7,10-10.7,17.7c0,11,8.9,20,20,20
			c5.3,0,10-2.1,13.6-5.4C432.8,710,423.3,703,421.7,690.2z"/>
		<path id="XMLID_48_" class="st8" d="M434.8,713.8c-12.3,0-22.4-10-22.4-22.4c0-12.3,10-22.4,22.4-22.4c12.3,0,22.4,10,22.4,22.4
			C457.2,703.8,447.1,713.8,434.8,713.8z M434.8,673.8c-9.7,0-17.6,7.9-17.6,17.6s7.9,17.6,17.6,17.6s17.6-7.9,17.6-17.6
			S444.5,673.8,434.8,673.8z"/>
		<path id="XMLID_94_" class="st9" d="M385.6,718c3-15.3,18-26.7,17.4-42.3c-0.7-15.7,6-27.7-49-38.3c-41.5-8-67.9,9.4-78.4,18.5
			c-0.5,9.9-3.4,77,7.2,93.5c6.6,10.2,18.6,23.5,31.6,32.6C375.4,784.5,382.9,732,385.6,718z"/>
		<path id="XMLID_129_" class="st10" d="M414.8,651.3c0,0-13.9-30.2-69.5-29.2l0,0c-1.7,0-3.5,0.1-5.3,0.1
			c-57.3,2.9-64.3,32.3-64.3,32.3s0,0.4-0.1,1.2c10.5-9.1,36.9-26.6,78.4-18.5c55,10.7,48.3,22.7,49,38.3
			c0.7,15.7-14.4,27-17.4,42.3c-2.7,14-10.2,66.5-71.2,63.9c2,1.4,4,2.7,6.1,3.9c8.2,4.5,16.2,7.1,23.5,6.2
			c21.6-3,62.9-28.2,65.8-43.5C412.6,733.2,416,704.4,414.8,651.3z"/>
		<path id="XMLID_43_" class="st8" d="M340.9,794.5c-6.3,0-13.4-2.2-21.6-6.7c-15.8-9-30.7-25.2-38.5-37.2
			c-11.8-18.3-7.7-93-7.5-96.1l0-0.2l0-0.2c0.1-0.3,2-8.2,11.4-16.3c12.2-10.6,30.8-16.6,55.1-17.8l0.1,0c0.9,0,1.8,0,2.7-0.1
			c0.9,0,1.7-0.1,2.6-0.1l0,0c29.4-0.5,47.2,7.7,57,14.7c10.8,7.7,14.5,15.6,14.7,15.9l0.2,0.4l0,0.5c1,41.9-0.8,74.7-5.1,97.6
			c-3.3,17.3-46.7,42.4-67.8,45.4C343.2,794.4,342.1,794.5,340.9,794.5z M278,655c-0.3,4.9-3.9,76.6,6.8,93
			c7.3,11.2,21.9,27.1,36.8,35.7c8.7,4.8,16,6.7,22,5.9c9.9-1.4,25.2-8,38.9-16.8c14.1-9.1,23.7-18.6,24.8-24.8
			c4.3-22.5,6-54.8,5.1-96.1c-0.9-1.6-4.6-7.8-13.2-13.8c-9.2-6.4-25.9-14-53.6-13.6l0,0l-0.3,0c-0.8,0-1.6,0-2.5,0.1
			c-0.9,0-1.8,0.1-2.8,0.1c-28.6,1.5-44,9.7-51.8,16.4C280.5,647.6,278.4,653.9,278,655z"/>
		<path id="XMLID_41_" class="st34" d="M383.9,635.3c0,0,2.4,6.3-14,11.3c-16.5,5-18.7,12.1-19.4,20.6s2.9,14.5,10.3,19.1
			c7.4,4.6,24,8.7,34.4,0c6.1-5.1,9-8.4,10.4-10.3c1.3-1.7,3.4-2.8,5.7-2.7c1.5,0.1,3,0.6,3.8,2.3l-0.2-24.3c0,0-3.9-7.9-13.9-15
			c-0.5-0.4-1.2,0.2-0.7,0.8c4.2,5.2,12,16.2,10.5,24.3c-1.7,9.4-3.9,10.9-3.9,10.9s-3.8,2.3-5.1-2.9
			C400.1,664.3,390.8,639.6,383.9,635.3z"/>
		<path id="XMLID_39_" class="st35" d="M311,741.9c0,0,12.8,13.7,31,12.8c18.2-0.7,31-12.8,31-12.8"/>
		<path id="XMLID_38_" class="st36" d="M358.3,677.5c-0.6-0.1-1-0.7-0.6-1.2c2.1-3.3,9-13,17.8-11.5c10.7,1.7,13.2,10.4,13.2,10.4
			S382.5,680.5,358.3,677.5z"/>
		<path id="XMLID_40_" class="st37" d="M341.7,723.3c-2.8,0-5.2-1.3-6.5-3.6c0-0.1-0.1-0.1-0.1-0.2c-1.3,0.7-2.9,1-4.5,0.3l-0.1,0
			c-2.2-0.9-3.6-2.9-3.9-5.2c-0.1-1.2,0.3-2.4,1.2-3.2c0.9-0.8,2.2-1.1,3.4-0.8l0.1,0c1.5,0.4,5.3,1.9,8,6.7
			c0.4,0.7,1.1,1.1,2.1,1.2c1.2,0.1,2.2-0.4,2.5-0.7c0.8-2.8,5.7-7.1,9.2-8c2.7-0.7,4.1,0.5,4.8,1.2c1.1,1.2,1.3,3.2,0.6,4.9
			c-0.8,1.9-2.5,3.1-4.8,3.2c-2.1,0.2-3.7-0.4-4.7-1c-0.3,0.3-0.5,0.6-0.6,0.9c-0.5,2.1-2.6,3.7-5.4,4.1
			C342.7,723.3,342.2,723.3,341.7,723.3z"/>
		<path id="XMLID_36_" class="st34" d="M305.8,635.3c0,0-2.4,6.3,14,11.3c16.5,5,18.7,12.1,19.4,20.6s-2.9,14.5-10.3,19.1
			c-7.4,4.6-24,8.7-34.4,0c-6.1-5.1-9-8.4-10.4-10.3c-1.3-1.7-3.4-2.8-5.7-2.7c-1.5,0.1-3,0.6-3.8,2.3l0.2-24.3c0,0,3.9-7.9,13.9-15
			c0.5-0.4,1.2,0.2,0.7,0.8c-4.2,5.2-12,16.2-10.5,24.3c1.7,9.4,3.9,10.9,3.9,10.9s3.8,2.3,5.1-2.9
			C289.7,664.3,298.9,639.6,305.8,635.3z"/>
		<path id="XMLID_35_" class="st36" d="M331.5,677.5c0.6-0.1,1-0.7,0.6-1.2c-2.1-3.3-9-13-17.8-11.5c-10.7,1.7-13.2,10.4-13.2,10.4
			S307.3,680.5,331.5,677.5z"/>
		<circle id="XMLID_34_" class="st34" cx="316.1" cy="671.5" r="8"/>
		<circle id="XMLID_37_" class="st34" cx="373.2" cy="672" r="8"/>
		<circle id="XMLID_33_" class="st1" cx="258" cy="695.7" r="8.8"/>
		<circle id="XMLID_24_" class="st1" cx="431.5" cy="691.4" r="8.8"/>
		<path id="XMLID_30_" class="st12" d="M345,611.8c61.8-0.4,64.3,33.8,81.1-1.4c-89.2-50.7-166.1,5.3-166.1,5.3l13.2,32.9
			C278.7,636.8,296.3,612.1,345,611.8z"/>
		<path id="XMLID_32_" class="st33" d="M426.1,610.4c-16.8,35.2-19.3,1.1-81.1,1.4c-48.7,0.3-66.3,25-71.9,36.8l2.4,6.1
			c14.2-32.8,64.3-32.3,64.4-32.3c61.2-3.3,74.8,29.1,74.8,29.1l20-35.7C431.9,613.8,429,612,426.1,610.4z"/>
		<path id="XMLID_28_" class="st38" d="M254.9,584.4c36.8-21.6,93.2-27.8,123.4-29.6c-10.3-1.5-21.4-2.5-33.5-2.7
			c0,0-52.9,3.1-103.1,32.3c-3.1,1.8-4.2,5.9-2.4,9.1l11.5,19.9c2.2,3.4,6.5,4.2,9.7,2.1c0.2-0.1,0.4-0.3,0.6-0.4l-9.8-16.5
			C248.4,593.6,250,587.2,254.9,584.4z"/>
		<path id="XMLID_27_" class="st1" d="M378.4,554.7c-30.3,1.8-86.7,8.1-123.4,29.6c-4.9,2.9-6.5,9.3-3.6,14.2l9.8,16.5
			c12-8.3,40.6-24.2,83.7-25.8c0,0,15-1.6,37.4,3.9c31.2-3.9,49-11.3,59.1-18.6C427.5,567.3,406.4,558.9,378.4,554.7z"/>
		<path id="XMLID_31_" class="st39" d="M455.6,582.9c-3.3-2.2-8.1-5.2-14.3-8.4c-10.1,7.3-27.9,14.7-59.1,18.6
			c14.5,3.6,32.2,10.1,50.9,22c3,1.9,6.9,1.2,9-1.7l15.3-21.2C459.5,589.1,458.8,584.9,455.6,582.9z"/>
		<path id="XMLID_134_" class="st8" d="M270.8,611.8c7.3-4,18.5-9.4,32.6-13.6C289.4,602.2,278.5,607.4,270.8,611.8z"/>
		<path id="XMLID_136_" class="st8" d="M431.4,616.8l-16.6,29.8c-2.2-3.3-6.3-8.2-13.1-12.9c-10.4-7.2-29.5-15.4-61.8-13.7
			c-2.8,0-47.3,0.3-64.1,29l-12.9-32.2c-0.4,0.2-0.7,0.5-1,0.7l0,0c-1,0.7-2.1,1.2-3.3,1.4l16.9,42.1l2.3-5.2
			c5.6-12.9,17.6-22,35.7-27.1c13.8-3.9,26-3.8,26.5-3.8l0.1,0c30.7-1.6,48.8,6,58.6,12.7c10.5,7.2,13.9,14.9,14,14.9l1.9,4.5
			l21.4-38.3c-1.4-0.1-2.8-0.6-4.1-1.4C431.7,617,431.6,616.9,431.4,616.8z"/>
		<path id="XMLID_139_" class="st8" d="M272.2,605.6c-8.4,4.4-13.3,7.8-13.7,8.1l-0.3,0.2c0.3-0.1,0.6-0.3,0.9-0.5
			C262.1,611.4,266.5,608.6,272.2,605.6z"/>
		<path id="XMLID_151_" class="st8" d="M300.9,593.9c-11.7,3.5-21.4,7.8-28.7,11.7C279.3,601.9,289.1,597.5,300.9,593.9z"/>
		<path id="XMLID_152_" class="st8" d="M262.8,616.6l0.1,0.1c2-1.4,4.7-3.1,7.9-4.9C267.1,613.8,264.4,615.5,262.8,616.6z"/>
		<path id="XMLID_153_" class="st8" d="M460.8,586.7c-0.4-2.4-1.8-4.5-3.8-5.8c-13.4-9.1-51.1-30.4-112.1-31.2l-0.1,0l-0.1,0
			c-0.5,0-54.1,3.5-104.1,32.7c-4.3,2.5-5.8,8-3.3,12.3l11.5,19.9l0.1,0.1c1.4,2.2,3.6,3.7,6.1,4.2c0.6,0.1,1.2,0.2,1.8,0.2
			c0.6,0,1.3-0.1,1.9-0.2l-1.6-3.9l1.2-0.9c-0.8,0.3-1.6,0.4-2.4,0.2c-1.2-0.2-2.3-1-3-2l-11.5-19.8c-1.2-2-0.4-4.7,1.6-5.8
			c48.1-28,99.6-31.9,101.9-32c59.7,0.7,96.4,21.5,109.5,30.4c1,0.6,1.6,1.6,1.8,2.7c0.2,1.1,0,2.3-0.7,3.2L440.1,612
			c-0.9,1.3-2.5,1.9-4,1.7l1.8,1.2l-2,3.6c3.1,0.3,6.1-1,8.1-3.7l15.3-21.2C460.7,591.6,461.3,589.1,460.8,586.7z"/>
		<path id="XMLID_159_" class="st8" d="M261.9,617.4c0.3-0.2,0.7-0.5,1-0.7l-0.1-0.1c1.5-1,4.2-2.7,7.9-4.8
			c7.7-4.4,18.7-9.6,32.6-13.6c3.1-0.9,6.4-1.8,9.9-2.6c2.8-0.7,5.8-1.3,9-1.8c1.1-0.2,2-1.2,2-2.3l0,0c0-1.4-1.3-2.5-2.7-2.3
			c-7.4,1.3-14.3,2.9-20.6,4.8c-11.8,3.6-21.6,8-28.7,11.7c-5.7,3-10.1,5.8-13,7.9c-0.3,0.2-0.6,0.4-0.9,0.5l-1.2,0.9l1.6,3.9
			C259.8,618.5,260.9,618.1,261.9,617.4L261.9,617.4z"/>
		<path id="XMLID_163_" class="st8" d="M436.2,613.7c-0.6-0.1-1.2-0.3-1.8-0.6c-8.7-5.6-17.2-10-25.3-13.4c-1.5-0.6-3.1,0.5-3.1,2.1
			l0,0c0,0.9,0.5,1.7,1.4,2.1c8,3.4,16.1,7.5,24.3,12.7l-0.2,0.3c0.1,0.1,0.3,0.2,0.4,0.2c1.3,0.8,2.7,1.3,4.1,1.4l2-3.6
			L436.2,613.7z"/>
		<path id="XMLID_165_" class="st8" d="M365.2,590.3L365.2,590.3c0,1.1,0.8,2.1,2,2.3c5.6,0.8,12,2,19,4c1.1,0.3,2.1,0.6,3.2,0.9
			c1.5,0.4,2.9-0.7,2.9-2.2v-0.1c0-1-0.7-1.9-1.6-2.2c-2.9-0.9-5.7-1.6-8.4-2.3c-4.5-1-9.1-1.9-13.6-2.5c-0.3,0-0.6-0.1-0.9-0.1
			C366.4,587.8,365.2,588.9,365.2,590.3z"/>
		<path id="XMLID_168_" class="st8" d="M336.4,589.6c0,1.3,1.1,2.4,2.4,2.3c0.3,0,0.6,0,1-0.1c1.7-0.1,3.4-0.2,5.2-0.3l0.2,0
			c0.1,0,1.5-0.1,4.1-0.2c1.3,0,2.3-1,2.3-2.3l0,0c0-1.2-1-2.3-2.3-2.3c-1.9,0-3.8,0-5.7,0.1c-1.7,0.1-3.4,0.2-5,0.3
			c-1.2,0.1-2.1,1.1-2.1,2.3V589.6z"/>
		<polygon id="XMLID_23_" class="st40" points="311,741.9 335.9,730.7 342.6,733.2 350.4,730.7 373.2,741.9 		"/>
		<ellipse id="XMLID_22_" class="st9" cx="347" cy="570" rx="3.4" ry="9.8"/>
		
			<ellipse id="XMLID_21_" transform="matrix(-0.9774 -0.2112 0.2112 -0.9774 633.5839 1214.9226)" class="st9" cx="381.7" cy="573.6" rx="3.4" ry="9.8"/>
		
			<ellipse id="XMLID_20_" transform="matrix(-0.9234 -0.3838 0.3838 -0.9234 572.4422 1280.5692)" class="st9" cx="414" cy="583.2" rx="3.4" ry="9.8"/>
		
			<ellipse id="XMLID_19_" transform="matrix(0.9774 -0.2112 0.2112 0.9774 -114.6915 77.9743)" class="st9" cx="307.7" cy="575.9" rx="3.4" ry="9.8"/>
		
			<ellipse id="XMLID_18_" transform="matrix(0.9234 -0.3838 0.3838 0.9234 -203.6271 150.5221)" class="st9" cx="275.4" cy="585.5" rx="3.4" ry="9.8"/>
		<path id="XMLID_17_" class="st41" d="M287.1,616.2c-3.9,0-3.9,6.1,0,6.1C290.9,622.2,290.9,616.2,287.1,616.2z"/>
		<path id="XMLID_16_" class="st41" d="M314.5,606.5c-3.9,0-3.9,6.1,0,6.1S318.4,606.5,314.5,606.5z"/>
		<path id="XMLID_15_" class="st41" d="M347,603.4c-3.9,0-3.9,6.1,0,6.1C350.9,609.5,350.9,603.4,347,603.4z"/>
		<path id="XMLID_14_" class="st41" d="M376.1,606.5c-3.9,0-3.9,6.1,0,6.1C379.9,612.5,379.9,606.5,376.1,606.5z"/>
		<path id="XMLID_13_" class="st41" d="M404.2,616.2c-3.9,0-3.9,6.1,0,6.1C408,622.2,408,616.2,404.2,616.2z"/>
		<g id="XMLID_42_" class="st13">
			<path id="XMLID_51_" class="st0" d="M314.6,766.6c-2,2-5.2,1.9-7.1-0.1c-5.6-5.9-15.8-17.3-19.4-25c-4-8.6-4.3-34.7-4.3-46.1
				c0-2.8,2.3-5,5.1-5l0,0c2.7,0.1,4.9,2.3,4.9,5c-0.1,15,0.7,36.2,3.3,41.9c2.8,6,11.8,16.2,17.6,22.3
				C316.6,761.6,316.5,764.7,314.6,766.6L314.6,766.6z"/>
		</g>
	</g>
	<circle id="XMLID_2_" class="st0" cx="392.3" cy="494" r="13.4"/>
	<circle id="XMLID_317_" class="st0" cx="734.5" cy="531.8" r="13.4"/>
	<circle id="XMLID_315_" class="st0" cx="618" cy="386.7" r="9.2"/>
	<circle id="XMLID_319_" class="st0" cx="1105.3" cy="506.2" r="9.2"/>
	<circle id="XMLID_316_" class="st0" cx="870.4" cy="412.5" r="4.6"/>
	<circle id="XMLID_320_" class="st0" cx="1018.2" cy="588" r="4.6"/>
	<circle id="XMLID_318_" class="st0" cx="556.7" cy="471.9" r="4.6"/>
	<path id="XMLID_225_" class="st8" d="M1240.9,937.1H338c-3.6,0-6.6-3-6.6-6.6l0,0c0-3.6,3-6.6,6.6-6.6h902.9c3.6,0,6.6,3,6.6,6.6
		l0,0C1247.5,934.1,1244.5,937.1,1240.9,937.1z"/>
	<path id="XMLID_295_" class="st42" d="M780.9,885.5H357.2c-10.6,0-19.2,8.6-19.2,19.2v0c0,10.6,8.6,19.2,19.2,19.2h423.7
		c10.6,0,19.2-8.6,19.2-19.2v0C800,894.1,791.5,885.5,780.9,885.5z"/>
	<path id="XMLID_322_" class="st43" d="M1192.9,885.5H769.2c-10.6,0-19.2,8.6-19.2,19.2v0c0,10.6,8.6,19.2,19.2,19.2h423.7
		c10.6,0,19.2-8.6,19.2-19.2v0C1212,894.1,1203.4,885.5,1192.9,885.5z"/>
	<path id="XMLID_323_" class="st44" d="M588.9,874.9H468.1c-10.6,0-19.2,8.6-19.2,19.2v0c0,10.6,8.6,19.2,19.2,19.2h120.8
		c10.6,0,19.2-8.6,19.2-19.2v0C608.1,883.5,599.5,874.9,588.9,874.9z"/>
	<path id="XMLID_324_" class="st44" d="M1104.6,866.9h-41.2c-10.6,0-19.2,8.6-19.2,19.2l0,0c0,10.6,8.6,19.2,19.2,19.2h41.2
		c10.6,0,19.2-8.6,19.2-19.2l0,0C1123.7,875.5,1115.1,866.9,1104.6,866.9z"/>
</g>
</svg>
